<svg xmlns="http://www.w3.org/2000/svg" width="320" height="64"><defs><clipPath id="a"><path fill="none" d="M0 0h320v64H0z"/></clipPath></defs><g clip-path="url(#a)"><path d="M31.4 18.6a11.4 11.4 0 0 1 5.2 3.6 8.8 8.8 0 0 1 1.9 5.6 8.5 8.5 0 0 1-4.2 7.6q-4.1 2.7-12 2.7H1V.9h20.3q7.7 0 11.6 2.6a8.2 8.2 0 0 1 3.9 7 8.5 8.5 0 0 1-1.4 4.8 9.5 9.5 0 0 1-4 3.3zm-17.9-9v5.6h6q4.2 0 4.2-2.8t-4.2-2.8zm7.7 19.7q4.3 0 4.3-3t-4.3-2.9h-7.7v5.9zm38.1-.6h-3.5v9.4H43V.9h18.3a23 23 0 0 1 9.3 1.7 13.5 13.5 0 0 1 6 4.8 13.1 13.1 0 0 1 2.1 7.5 13 13 0 0 1-1.8 7 13 13 0 0 1-5.4 4.7l8 11.5H65.8zM65.8 15a4 4 0 0 0-1.3-3.2 5.8 5.8 0 0 0-4-1.2h-4.7v8.7h4.7a5.8 5.8 0 0 0 4-1.1 4 4 0 0 0 1.3-3.2zM83.6.9h12.8V38H83.6zm45 30.7h-14.4l-2.6 6.5h-13L115.1.9h12.6L144.5 38h-13.3zm-3.5-9l-3.7-9.4-3.7 9.3zm59-21.7V38h-10.5l-14.5-17v17h-12.5V.9h10.6l14.5 16.9V.8zm22.7 0h18.8A26.5 26.5 0 0 1 236.8 3a17.5 17.5 0 0 1 7.6 6.5 17.9 17.9 0 0 1 2.7 9.9 17.9 17.9 0 0 1-2.7 9.9 17.5 17.5 0 0 1-7.6 6.4 26.5 26.5 0 0 1-11.2 2.3h-18.8zM225 28.3a9.3 9.3 0 0 0 6.6-2.3 8.5 8.5 0 0 0 2.5-6.5 8.5 8.5 0 0 0-2.5-6.6 9.3 9.3 0 0 0-6.6-2.3h-5.4v17.7zm47.8-3.7V38H260V24.4L245.6 1H259l7.8 12.8L274.8 1h12.4zm29.4 14.3a41 41 0 0 1-9.2-1 25.1 25.1 0 0 1-7.4-2.8l4.2-9.2a26.8 26.8 0 0 0 6 2.5 24.4 24.4 0 0 0 6.5 1 10.3 10.3 0 0 0 3.9-.6 1.6 1.6 0 0 0 1.1-1.5q0-1.1-1.5-1.7a32.9 32.9 0 0 0-5-1.3 57 57 0 0 1-7.3-2 12.6 12.6 0 0 1-5.1-3.3 9 9 0 0 1-2.2-6.5 10.8 10.8 0 0 1 2-6.3 13.3 13.3 0 0 1 6-4.6A25.6 25.6 0 0 1 304 0a36.2 36.2 0 0 1 7.7.8 24.5 24.5 0 0 1 6.7 2.4l-4 9.1A24.1 24.1 0 0 0 304 9.6q-5 0-5 2.3 0 1.1 1.5 1.7a31.8 31.8 0 0 0 4.8 1.2 50.9 50.9 0 0 1 7.4 1.8 12.8 12.8 0 0 1 5.2 3.4 9 9 0 0 1 2.2 6.4 10.7 10.7 0 0 1-2 6.3 13.5 13.5 0 0 1-6 4.5 25.2 25.2 0 0 1-9.8 1.7z" fill="#1c1c1c"/><path d="M8.2 64A9 9 0 0 1 4 63a7.4 7.4 0 0 1-3-2.7 7.3 7.3 0 0 1-1-3.9 7.3 7.3 0 0 1 1-4 7.4 7.4 0 0 1 3-2.6 9 9 0 0 1 4.2-1 9.3 9.3 0 0 1 3.7.7 7.1 7.1 0 0 1 2.8 2L12 54a4.5 4.5 0 0 0-3.5-1.7 4.4 4.4 0 0 0-2.2.5 3.7 3.7 0 0 0-1.5 1.5 4.4 4.4 0 0 0-.5 2.2 4.4 4.4 0 0 0 .5 2.2A3.7 3.7 0 0 0 6.3 60a4.4 4.4 0 0 0 2.2.5 4.5 4.5 0 0 0 3.5-1.7l2.7 2.3a7.1 7.1 0 0 1-2.8 2 9.3 9.3 0 0 1-3.7.8zm18-4.2h-2.4v4h-4.2V49h6.8a8.7 8.7 0 0 1 3.6.6 5.2 5.2 0 0 1 2.3 2 5 5 0 0 1 .8 2.8 5 5 0 0 1-.8 2.8 5.1 5.1 0 0 1-2.2 1.8l3.3 4.6h-4.6zm2.6-5.3a2 2 0 0 0-.7-1.6 3 3 0 0 0-2-.6h-2.3v4.3h2.4a3 3 0 0 0 2-.5 2 2 0 0 0 .6-1.6zm21.6 6v3.2h-12V49.1h11.8v3.2h-7.6v2.5h6.7v3h-6.7v2.7zm15.4.4h-6.3l-1.2 2.8H54l6.6-14.6h4.2l6.6 14.6H67zm-1.2-3l-2-4.8-1.9 4.7zM78 52.3h-4.6V49h13.4v3.3h-4.6v11.3h-4.2zM91.5 49h4.2v14.6h-4.2zm25.4 0l-6.4 14.6h-4.2l-6.4-14.6h4.6l4 9.5 4.2-9.5zm15.9 11.4v3.2h-12V49.1h11.7v3.2H125v2.5h6.6v3H125v2.7zm14.6-11.4h4.2v11.3h7.2v3.3h-11.4zm28 11.4v3.2h-12V49.1h11.8v3.2h-7.6v2.5h6.7v3h-6.7v2.7zm15.5.4h-6.4l-1.2 2.8H179l6.6-14.6h4.2l6.6 14.6H192zm-1.3-3l-2-4.8-1.8 4.7zm11-8.8h7.1a10.1 10.1 0 0 1 4.4.9 6.9 6.9 0 0 1 3 2.5 7 7 0 0 1 1 3.9 7 7 0 0 1-1 3.9 6.9 6.9 0 0 1-3 2.5 10.1 10.1 0 0 1-4.4 1h-7zm7 11.3a4.4 4.4 0 0 0 3-1 3.8 3.8 0 0 0 1.2-3 3.8 3.8 0 0 0-1.2-3 4.4 4.4 0 0 0-3-1h-2.7v8zm25.8.1v3.2h-12V49.1H233v3.2h-7.6v2.5h6.7v3h-6.7v2.7zm11.9-.7h-2.4v4h-4.2V49h6.9a8.7 8.7 0 0 1 3.5.6 5.2 5.2 0 0 1 2.3 2 5 5 0 0 1 .8 2.8 5 5 0 0 1-.7 2.8 5.1 5.1 0 0 1-2.2 1.8l3.2 4.6H248zm2.6-5.3a2 2 0 0 0-.6-1.6 3 3 0 0 0-2-.6h-2.4v4.3h2.4a3 3 0 0 0 2-.5 2 2 0 0 0 .6-1.6zm15 9.5a14.2 14.2 0 0 1-3.6-.4 8.8 8.8 0 0 1-2.8-1.2l1.4-3a9.1 9.1 0 0 0 2.3 1 9 9 0 0 0 2.6.4q2.5 0 2.5-1.2a1 1 0 0 0-.7-1 13 13 0 0 0-2.3-.6 21.8 21.8 0 0 1-2.8-.7 4.8 4.8 0 0 1-2-1.3 3.5 3.5 0 0 1-.7-2.5 4.1 4.1 0 0 1 .7-2.4 5 5 0 0 1 2.2-1.7 9.4 9.4 0 0 1 3.7-.6 13.2 13.2 0 0 1 2.9.3 9 9 0 0 1 2.5 1l-1.3 3a8.9 8.9 0 0 0-4.1-1 3.6 3.6 0 0 0-1.9.3 1 1 0 0 0-.6 1 1 1 0 0 0 .7.8 12.6 12.6 0 0 0 2.2.6 21 21 0 0 1 2.9.8 5 5 0 0 1 2 1.3 3.4 3.4 0 0 1 .7 2.4 4 4 0 0 1-.7 2.4 5 5 0 0 1-2.3 1.7 9.3 9.3 0 0 1-3.6.6zm25.8-15v14.7h-4.3V58h-5.8v5.7h-4.2V49.1h4.2v5.5h5.8V49zm6 0h4.2v14.7h-4.2zm17 0a8.7 8.7 0 0 1 3.6.7 5.2 5.2 0 0 1 2.3 2 5 5 0 0 1 .8 2.8 5 5 0 0 1-.8 2.9 5.2 5.2 0 0 1-2.3 1.8 8.7 8.7 0 0 1-3.5.7H309v3.8H305V49.1zm-.2 7.6a3 3 0 0 0 2-.5 2 2 0 0 0 .6-1.6 2 2 0 0 0-.6-1.6 3 3 0 0 0-2-.6h-2.4v4.3z" fill="#e50000"/></g></svg>