<svg xmlns="http://www.w3.org/2000/svg" width="124" height="160"><defs><clipPath id="a"><path fill="none" d="M0 0h124v160H0z"/></clipPath></defs><g clip-path="url(#a)"><path d="M62 160a7.9 7.9 0 0 1-4.4-1.4L12 127.5a19.8 19.8 0 0 1-8.6-15.7L0 15.8a8 8 0 0 1 4-7.2 7.9 7.9 0 0 1 8 0l23.2 14.2L56.5 2.2a7.9 7.9 0 0 1 11 0l21.3 20.6L112 8.7a7.9 7.9 0 0 1 8.1 0 8 8 0 0 1 3.9 7l-3.4 96.1a19.8 19.8 0 0 1-8.6 15.7l-45.5 31.1A7.9 7.9 0 0 1 62 160z" fill="#7f5800"/><path d="M114.6 111.6l3.3-96a1.9 1.9 0 0 0-.9-1.7 1.9 1.9 0 0 0-1.9 0L91.8 28.1a5.9 5.9 0 0 1-7.2-.8L63.3 6.6a1.9 1.9 0 0 0-2.6 0L39.4 27.3a5.9 5.9 0 0 1-7.2.8L9 14a1.8 1.8 0 0 0-1-.3 1.9 1.9 0 0 0-1 .3 1.8 1.8 0 0 0-.8 1.7l3.3 96a13.7 13.7 0 0 0 6 10.9l45.6 31a1.8 1.8 0 0 0 2 0l45.6-31a13.7 13.7 0 0 0 6-10.9z" fill="#f2b600"/><path d="M39.8 42.7V65h-6v-8.7h-7.4V65h-6V42.7h6V51h7.4v-8.2zM60.8 48h-6.4v17h-6V48H42v-5.3h18.8zM79.7 65V53.2L76 61.5h-3.3l-3.6-8.2v11.6h-6V42.7h6.5l4.8 10.5L79 42.7h6.6V65zM89.5 65V42.6h6v16.9h10v5.3zM40.4 119a18.7 18.7 0 0 1-8.2-1.7 20.2 20.2 0 0 1-6.4-4.7A22 22 0 0 1 20.3 98a21 21 0 0 1 1.5-8 22 22 0 0 1 4.3-6.7 20.3 20.3 0 0 1 6.4-4.6 19 19 0 0 1 8.1-1.8 18 18 0 0 1 8.2 1.9 20.4 20.4 0 0 1 6.3 4.8 22.3 22.3 0 0 1 4 6.8 21.6 21.6 0 0 1 1.5 7.7 21 21 0 0 1-1.5 8 21.6 21.6 0 0 1-4.2 6.6 20.2 20.2 0 0 1-6.4 4.7 19 19 0 0 1-8 1.7zm-12-21a16.9 16.9 0 0 0 .8 5.2 14 14 0 0 0 2.4 4.5 11.3 11.3 0 0 0 14 3 11.8 11.8 0 0 0 3.8-3.2 14.3 14.3 0 0 0 2.3-4.4 16.8 16.8 0 0 0 .8-5.1 16.4 16.4 0 0 0-.8-5.2 14.5 14.5 0 0 0-2.4-4.5 11.4 11.4 0 0 0-3.8-3 11.7 11.7 0 0 0-10.2 0 11.5 11.5 0 0 0-3.8 3.2 14.3 14.3 0 0 0-2.3 4.4 16.8 16.8 0 0 0-.8 5.1zM70.3 118.8V77.3h8V97l17.4-19.8h8.8L88.7 95.7l16.8 23h-9l-12.8-17.9-5.3 5.6v12.4z" fill="#4c3100"/></g></svg>