<svg xmlns="http://www.w3.org/2000/svg" width="130" height="146"><defs><clipPath id="a"><path fill="none" d="M0 0h130v146H0z"/></clipPath></defs><g clip-path="url(#a)"><path d="M65 146a16.3 16.3 0 0 1-8.2-2.2L8.1 115.4a16.2 16.2 0 0 1-8.1-14V44.6a16.2 16.2 0 0 1 8-14L56.9 2.2a16.3 16.3 0 0 1 16.4 0l48.7 28.4a16.2 16.2 0 0 1 8.1 14v56.9a16.2 16.2 0 0 1-8 14l-48.8 28.3A16.3 16.3 0 0 1 65 146z" fill="#0049b2"/><path d="M118.9 35.8L70 7.5a10.2 10.2 0 0 0-10.2 0L11 35.8a10.1 10.1 0 0 0-5 8.7v57a10.2 10.2 0 0 0 5 8.7L60 138.5a10.2 10.2 0 0 0 10.2 0l48.8-28.3a10.2 10.2 0 0 0 5-8.7v-57a10.1 10.1 0 0 0-5-8.7z" fill="#1064e2"/><path d="M62.5 53.8a1.8 1.8 0 0 1-1-1.5V27.8L42 39a5.6 5.6 0 0 1-5 0c-1.4-.8-1.4-2 0-3l25.4-14.7a5.6 5.6 0 0 1 3.9-.4c1.3.3 2.2 1 2.2 1.9v24.5L87.9 36a5.6 5.6 0 0 1 5 0c1.4.8 1.4 2.1 0 3L67.5 53.7a5.6 5.6 0 0 1-3.9.5 4.4 4.4 0 0 1-1.1-.5zM37 106.8c0 1.7-1 2.3-2.5 1.5A5.7 5.7 0 0 1 32 104V77.1l-10.2-5.8a5.6 5.6 0 0 1-2.5-4.5c0-1.6 1.1-2.3 2.5-1.5l25.4 14.6a5.7 5.7 0 0 1 2.6 4.5c0 1.6-1.2 2.3-2.6 1.5L37.1 80M93 80L82.7 86c-1.4.8-2.6.1-2.6-1.5a5.7 5.7 0 0 1 2.6-4.5l25.4-14.6c1.4-.8 2.5-.1 2.5 1.5a5.6 5.6 0 0 1-2.5 4.5L98 77v26.8a5.7 5.7 0 0 1-2.5 4.4c-1.4.8-2.6.1-2.6-1.5" fill="#fff"/></g></svg>