<svg xmlns="http://www.w3.org/2000/svg" width="170" height="87"><defs><clipPath id="a"><path fill="none" d="M0 0h170v87H0z"/></clipPath></defs><g clip-path="url(#a)"><path d="M10 0h150a10 10 0 0 1 10 10v67a10 10 0 0 1-10 10H10A10 10 0 0 1 0 77V10A10 10 0 0 1 10 0z" fill="#a50000"/><path d="M10 6h150a4 4 0 0 1 4 4v67a4 4 0 0 1-4 4H10a4 4 0 0 1-4-4V10a4 4 0 0 1 4-4z" fill="#e50000"/><path d="M29.4 59.8V27.1h15a10 10 0 0 1 4.5 1 11.5 11.5 0 0 1 3.4 2.6 12.2 12.2 0 0 1 2.3 3.6 11 11 0 0 1 .8 4.2 11.6 11.6 0 0 1-1.2 5.3 10.8 10.8 0 0 1-3.5 4l7 12H47.5l-5.8-10h-3.3v10zm9-17.9H44a2 2 0 0 0 1.5-.9 4.1 4.1 0 0 0 .7-2.6 3.7 3.7 0 0 0-.8-2.6 2.3 2.3 0 0 0-1.7-.9h-5.4zM86 52v7.8H62.5V27.1h22.9v7.8h-14v4.6h12v7.3h-12V52zM92.8 44.4v-8.5h7.1v8.5zm0 15.4v-8.5h7.1v8.5zM110.1 43.2a16.3 16.3 0 0 1 4.5-11.1 16.9 16.9 0 0 1 5.2-3.8 16.7 16.7 0 0 1 7-1.4 16.5 16.5 0 0 1 8.3 2 12.7 12.7 0 0 1 5.2 5.2l-6.9 4.8a5.9 5.9 0 0 0-1.2-2 6.2 6.2 0 0 0-1.7-1.2 7.3 7.3 0 0 0-1.9-.6 10.7 10.7 0 0 0-2-.2 6.7 6.7 0 0 0-5.6 2.7 8.6 8.6 0 0 0-1.3 2.8 11 11 0 0 0-.4 3 10.6 10.6 0 0 0 .5 3.3 8.5 8.5 0 0 0 1.4 2.8 7.2 7.2 0 0 0 2.4 2 6.8 6.8 0 0 0 3.2.6 9.1 9.1 0 0 0 1.9-.2 7 7 0 0 0 1.8-.7 6.3 6.3 0 0 0 1.6-1.2 5.6 5.6 0 0 0 1.2-1.9l7.3 4.4a9.3 9.3 0 0 1-2.2 3.2 14.3 14.3 0 0 1-3.4 2.4 18.2 18.2 0 0 1-4.1 1.5 19 19 0 0 1-4.3.5 15.2 15.2 0 0 1-6.7-1.5 16.8 16.8 0 0 1-5.2-3.8 17.5 17.5 0 0 1-3.4-5.4 16.7 16.7 0 0 1-1.2-6.2z" fill="#fff"/></g></svg>