<svg xmlns="http://www.w3.org/2000/svg" width="180" height="146"><defs><clipPath id="a"><path fill="none" d="M0 0h180v146H0z"/></clipPath></defs><g clip-path="url(#a)"><path d="M90 146a13.8 13.8 0 0 1-8.7-3L3.8 80.6a9.4 9.4 0 0 1 0-15L81.3 2.9a14.3 14.3 0 0 1 17.3 0l77.6 62.6a9.4 9.4 0 0 1 0 15l-77.5 62.6A13.8 13.8 0 0 1 90 146z" fill="#4e7f0e"/><path d="M172.3 70.2L94.8 7.6a8.2 8.2 0 0 0-9.6 0L7.6 70.2a3.3 3.3 0 0 0 0 5.6l77.6 62.6a8.2 8.2 0 0 0 9.6 0l77.5-62.6a3.3 3.3 0 0 0 0-5.6z" fill="#70cc14"/><path d="M125 102.4L95.6 73l29.6-29.4-5.6-5.5L90 67.5 60.5 38l-5.6 5.5L84.5 73l-29.6 29.4 5.6 5.5L90 78.5l29.5 29.4z" fill="#344c0b"/><path d="M45.9 80.2a4.2 4.2 0 0 0 2.2-.6 4.7 4.7 0 0 0 1.6-1.5 7 7 0 0 0 .8-2.2 12.1 12.1 0 0 0 .3-2.6V59h7.6v14.3a18.8 18.8 0 0 1-.7 5.4 11.7 11.7 0 0 1-2.3 4.3 11 11 0 0 1-4 3 13.7 13.7 0 0 1-5.6 1 13.3 13.3 0 0 1-5.7-1.1 10.9 10.9 0 0 1-3.9-3 12 12 0 0 1-2.2-4.4 19 19 0 0 1-.7-5.2V59h7.6v14.3a12.4 12.4 0 0 0 .3 2.6 7 7 0 0 0 .9 2.2 4.6 4.6 0 0 0 1.5 1.6 4.2 4.2 0 0 0 2.3.5zM121.8 86.8V59.2h10.7a15.8 15.8 0 0 1 6 1 12.2 12.2 0 0 1 7 7.4 15.8 15.8 0 0 1 1 5.4 15.5 15.5 0 0 1-1 5.7 12.3 12.3 0 0 1-2.9 4.3 12.7 12.7 0 0 1-4.4 2.8 15.9 15.9 0 0 1-5.8 1zm17-13.8a9.5 9.5 0 0 0-.5-3 6.6 6.6 0 0 0-1.3-2.2 5.5 5.5 0 0 0-2-1.5 6.3 6.3 0 0 0-2.6-.5h-3v14.4h3a6.3 6.3 0 0 0 2.7-.5 5.6 5.6 0 0 0 2-1.5 6.7 6.7 0 0 0 1.2-2.3 9.7 9.7 0 0 0 .4-3z" fill="#344c0b"/></g></svg>