<svg aria-hidden="true" style="position: absolute; width: 0; height: 0; overflow: hidden;" version="1.1" xmlns="http://www.w3.org/2000/svg" xmlns:xlink="http://www.w3.org/1999/xlink">
    <defs>
        <symbol id="brian-dys-logo" viewBox="0 0 320 248">
            <title>Brian Dys Logo</title>
            <path d="M53.5 30.7a20 20 0 0 1 9.1 6.2 15.1 15.1 0 0 1 3.3 9.8 14.7 14.7 0 0 1-7.3 13q-7.2 4.7-20.9 4.7H.3V0h35.5Q49.1 0 56 4.6t6.8 12.2a14.6 14.6 0 0 1-2.3 8.1 16.5 16.5 0 0 1-7 5.8zM22.3 15.2v9.6h10.5q7.3 0 7.3-4.8t-7.3-4.8zm13.5 34q7.4 0 7.4-5t-7.4-5H22.3v10zm66.5-1h-6.1v16.2H73.7V0h32a40.4 40.4 0 0 1 16.1 3 23.5 23.5 0 0 1 10.6 8.4 22.6 22.6 0 0 1 3.7 12.9 22.2 22.2 0 0 1-3.2 12 22.6 22.6 0 0 1-9.4 8.2l14 20h-24zm11.2-24a7 7 0 0 0-2.3-5.5q-2.3-2-6.9-2h-8.1v15.1h8.1q4.6 0 6.9-2a7 7 0 0 0 2.3-5.5zm31-24.2H167v64.4h-22.5zm78.6 53.2H198l-4.5 11.2h-22.8l29-64.4h22.1l29.1 64.4h-23.2zM217 37.5l-6.5-16.2-6.5 16.2zM320 0v64.4h-18.4l-25.3-29.3v29.3h-21.9V0H273L298 29.3V0zM.3 70.2h53q18 0 31.8 6.3a49.3 49.3 0 0 1 21.4 18.1q7.6 11.8 7.6 27.8t-7.6 27.7a49.3 49.3 0 0 1-21.4 18q-13.7 6.4-31.7 6.4H.3zm51.5 76.9q11.7 0 18.7-6.5t7-18.2q0-11.8-7-18.3t-18.7-6.5H36.6v49.5zm135-10.4v37.8h-36.4v-38.3l-40.6-66h38.3l22 36 22.2-36h35zm83 40.2a116.5 116.5 0 0 1-26-3q-12.7-2.8-20.9-7.7l11.7-25.7a76 76 0 0 0 17.2 7 69.4 69.4 0 0 0 18.3 2.6q7.6 0 10.8-1.4t3.3-4.3q0-3.3-4.3-5a93.4 93.4 0 0 0-14-3.5 162 162 0 0 1-20.7-5.4 35.5 35.5 0 0 1-14.4-9.6q-6.2-6.6-6.2-18a30.2 30.2 0 0 1 5.7-17.8q5.7-8 17-12.6t27.5-4.7a102.9 102.9 0 0 1 21.7 2.3 69.6 69.6 0 0 1 18.9 6.8l-11 25.5q-15.8-7.8-30-7.8-14 0-14 6.6 0 3.1 4.2 4.7a90.3 90.3 0 0 0 13.7 3.3 144.6 144.6 0 0 1 20.8 5.2 36.2 36.2 0 0 1 14.7 9.4q6.2 6.6 6.2 18a30 30 0 0 1-5.7 17.7q-5.7 8-17 12.7t-27.5 4.7z" fill="#1c1c1c"/><path d="M20.4 215.5a22 22 0 0 1-10.2-2.4 17.7 17.7 0 0 1-7-6.4 17.4 17.4 0 0 1-2.6-9.4A17.4 17.4 0 0 1 3 188a17.7 17.7 0 0 1 7.1-6.4 22 22 0 0 1 10.2-2.3 22.5 22.5 0 0 1 9 1.7 17 17 0 0 1 6.5 4.8l-6.5 5.7a10.8 10.8 0 0 0-8.5-4 10.8 10.8 0 0 0-5.2 1.2A8.8 8.8 0 0 0 12 192a10.5 10.5 0 0 0-1.2 5.2 10.5 10.5 0 0 0 1.2 5.2 8.8 8.8 0 0 0 3.6 3.5 10.8 10.8 0 0 0 5.2 1.3 10.8 10.8 0 0 0 8.5-4.1l6.5 5.7a17 17 0 0 1-6.6 4.9 22.5 22.5 0 0 1-8.9 1.7zm43-10h-5.6v9.3H47.6v-35h16.5a21.2 21.2 0 0 1 8.5 1.6 12.5 12.5 0 0 1 5.6 4.5 12 12 0 0 1 2 6.9 11.9 11.9 0 0 1-1.9 6.6 12.3 12.3 0 0 1-5.2 4.4l7.8 11h-11zm6.4-12.7a4.7 4.7 0 0 0-1.6-3.8 7.2 7.2 0 0 0-4.7-1.4h-5.7V198h5.7a7.3 7.3 0 0 0 4.7-1.4 4.6 4.6 0 0 0 1.6-3.7zM122 207v7.7H93v-35h28.3v7.7h-18.1v5.9h16v7.3h-16v6.4zm37 .9h-15.2l-2.8 6.8h-10.4l15.9-35h10l16 35h-10.6zm-3-7.3l-4.6-11.2-4.6 11.2zm32.5-13h-11.1v-7.8h32.3v7.8h-11v27h-10.2zm32.2-7.8h10.2v34.9h-10.2zm61.1 0l-15.4 34.9h-10l-15.5-35h11l9.8 22.8 10-22.7zM320 207v7.7h-29v-35h28.3v7.7h-18.2v5.9h16v7.3h-16v6.4zM0 220.3h8v21h13.3v6.2H0zm52.6 21.2v6H30v-27.2h22v6H38v4.5h12.4v5.8H38v5zm28.8.7h-12l-2.1 5.3h-8.1l12.4-27.2h7.8l12.4 27.2h-8.2zm-2.4-5.7l-3.6-8.7-3.6 8.7zm20.7-16.2h13.2a19 19 0 0 1 8.2 1.7 12.8 12.8 0 0 1 5.5 4.7 13 13 0 0 1 2 7.2 13 13 0 0 1-2 7.2 12.8 12.8 0 0 1-5.5 4.7 19 19 0 0 1-8.2 1.7H99.7zm12.9 21a8.3 8.3 0 0 0 5.8-2 7 7 0 0 0 2.2-5.4 7 7 0 0 0-2.2-5.5 8.3 8.3 0 0 0-5.8-2h-5v15zm48.3.2v6h-22.5v-27.2h22v6h-14.2v4.5h12.5v5.8h-12.5v5zm22.2-1.3h-4.3v7.3h-8v-27.2h12.9a16.5 16.5 0 0 1 6.6 1.2 9.7 9.7 0 0 1 4.3 3.5 9.3 9.3 0 0 1 1.5 5.4 9.2 9.2 0 0 1-1.4 5 9.5 9.5 0 0 1-4 3.5l6 8.6h-8.5zm5-9.8a3.6 3.6 0 0 0-1.2-3 5.6 5.6 0 0 0-3.7-1h-4.4v8h4.4a5.7 5.7 0 0 0 3.7-1.1 3.6 3.6 0 0 0 1.2-3zM216 248a26.7 26.7 0 0 1-6.6-.8 16.5 16.5 0 0 1-5.2-2.2l2.6-5.6a17.1 17.1 0 0 0 4.3 1.9 17.1 17.1 0 0 0 5 .7q4.5 0 4.5-2.2a1.8 1.8 0 0 0-1.3-1.7 24.5 24.5 0 0 0-4.2-1.2 41 41 0 0 1-5.3-1.4 9 9 0 0 1-3.6-2.4 6.4 6.4 0 0 1-1.6-4.5 7.6 7.6 0 0 1 1.4-4.5 9.3 9.3 0 0 1 4.2-3.2 17.7 17.7 0 0 1 6.9-1.1 24.8 24.8 0 0 1 5.4.6 17 17 0 0 1 4.7 1.7l-2.4 5.7a16.7 16.7 0 0 0-7.8-2 6.7 6.7 0 0 0-3.4.6 2 2 0 0 0-1.1 1.8 1.8 1.8 0 0 0 1.3 1.6 23.8 23.8 0 0 0 4.1 1.1 39.6 39.6 0 0 1 5.3 1.4 9.2 9.2 0 0 1 3.7 2.4 6.3 6.3 0 0 1 1.5 4.5 7.5 7.5 0 0 1-1.4 4.4 9.5 9.5 0 0 1-4.2 3.2 17.5 17.5 0 0 1-6.8 1.2zm48.3-27.7v27.2h-8v-10.6h-10.7v10.6h-8v-27.2h8v10.2h10.8v-10.2zm11.2 0h8v27.2h-8zm32 0a16.5 16.5 0 0 1 6.6 1.2 9.7 9.7 0 0 1 4.4 3.5 9.3 9.3 0 0 1 1.5 5.4 9.3 9.3 0 0 1-1.5 5.3 9.8 9.8 0 0 1-4.3 3.4 16.5 16.5 0 0 1-6.7 1.3h-4.8v7h-8v-27zm-.4 14a5.7 5.7 0 0 0 3.6-1 3.6 3.6 0 0 0 1.3-3 3.6 3.6 0 0 0-1.3-2.9 5.6 5.6 0 0 0-3.6-1h-4.5v8z" fill="#e50000"/>
        </symbol>
        <symbol id="hok-glyph" viewBox="0 0 124 160">
            <title>HTML OK</title>
            <path d="M62 160a7.9 7.9 0 0 1-4.4-1.4L12 127.5a19.8 19.8 0 0 1-8.6-15.7L0 15.8a8 8 0 0 1 4-7.2 7.9 7.9 0 0 1 8 0l23.2 14.2L56.5 2.2a7.9 7.9 0 0 1 11 0l21.3 20.6L112 8.7a7.9 7.9 0 0 1 8.1 0 8 8 0 0 1 3.9 7l-3.4 96.1a19.8 19.8 0 0 1-8.6 15.7l-45.5 31.1A7.9 7.9 0 0 1 62 160z" fill="#7f5800"/><path d="M114.6 111.6l3.3-96a1.9 1.9 0 0 0-.9-1.7 1.9 1.9 0 0 0-1.9 0L91.8 28.1a5.9 5.9 0 0 1-7.2-.8L63.3 6.6a1.9 1.9 0 0 0-2.6 0L39.4 27.3a5.9 5.9 0 0 1-7.2.8L9 14a1.8 1.8 0 0 0-1-.3 1.9 1.9 0 0 0-1 .3 1.8 1.8 0 0 0-.8 1.7l3.3 96a13.7 13.7 0 0 0 6 10.9l45.6 31a1.8 1.8 0 0 0 2 0l45.6-31a13.7 13.7 0 0 0 6-10.9z" fill="#f2b600"/><path d="M39.8 42.7V65h-6v-8.7h-7.4V65h-6V42.7h6V51h7.4v-8.2zM60.8 48h-6.4v17h-6V48H42v-5.3h18.8zM79.7 65V53.2L76 61.5h-3.3l-3.6-8.2v11.6h-6V42.7h6.5l4.8 10.5L79 42.7h6.6V65zM89.5 65V42.6h6v16.9h10v5.3zM40.4 119a18.7 18.7 0 0 1-8.2-1.7 20.2 20.2 0 0 1-6.4-4.7A22 22 0 0 1 20.3 98a21 21 0 0 1 1.5-8 22 22 0 0 1 4.3-6.7 20.3 20.3 0 0 1 6.4-4.6 19 19 0 0 1 8.1-1.8 18 18 0 0 1 8.2 1.9 20.4 20.4 0 0 1 6.3 4.8 22.3 22.3 0 0 1 4 6.8 21.6 21.6 0 0 1 1.5 7.7 21 21 0 0 1-1.5 8 21.6 21.6 0 0 1-4.2 6.6 20.2 20.2 0 0 1-6.4 4.7 19 19 0 0 1-8 1.7zm-12-21a16.9 16.9 0 0 0 .8 5.2 14 14 0 0 0 2.4 4.5 11.3 11.3 0 0 0 14 3 11.8 11.8 0 0 0 3.8-3.2 14.3 14.3 0 0 0 2.3-4.4 16.8 16.8 0 0 0 .8-5.1 16.4 16.4 0 0 0-.8-5.2 14.5 14.5 0 0 0-2.4-4.5 11.4 11.4 0 0 0-3.8-3 11.7 11.7 0 0 0-10.2 0 11.5 11.5 0 0 0-3.8 3.2 14.3 14.3 0 0 0-2.3 4.4 16.8 16.8 0 0 0-.8 5.1zM70.3 118.8V77.3h8V97l17.4-19.8h8.8L88.7 95.7l16.8 23h-9l-12.8-17.9-5.3 5.6v12.4z" fill="#4c3100"/>
        </symbol>
        <symbol id="ntt-glyph" viewBox="0 0 130 146">
            <title>NTT</title>
            <path d="M65 146a16.3 16.3 0 0 1-8.2-2.2L8.1 115.4a16.2 16.2 0 0 1-8.1-14V44.6a16.2 16.2 0 0 1 8-14L56.9 2.2a16.3 16.3 0 0 1 16.4 0l48.7 28.4a16.2 16.2 0 0 1 8.1 14v56.9a16.2 16.2 0 0 1-8 14l-48.8 28.3A16.3 16.3 0 0 1 65 146z" fill="#0049b2"/><path d="M118.9 35.8L70 7.5a10.2 10.2 0 0 0-10.2 0L11 35.8a10.1 10.1 0 0 0-5 8.7v57a10.2 10.2 0 0 0 5 8.7L60 138.5a10.2 10.2 0 0 0 10.2 0l48.8-28.3a10.2 10.2 0 0 0 5-8.7v-57a10.1 10.1 0 0 0-5-8.7z" fill="#1064e2"/><path d="M62.5 53.8a1.8 1.8 0 0 1-1-1.5V27.8L42 39a5.6 5.6 0 0 1-5 0c-1.4-.8-1.4-2 0-3l25.4-14.7a5.6 5.6 0 0 1 3.9-.4c1.3.3 2.2 1 2.2 1.9v24.5L87.9 36a5.6 5.6 0 0 1 5 0c1.4.8 1.4 2.1 0 3L67.5 53.7a5.6 5.6 0 0 1-3.9.5 4.4 4.4 0 0 1-1.1-.5zM37 106.8c0 1.7-1 2.3-2.5 1.5A5.7 5.7 0 0 1 32 104V77.1l-10.2-5.8a5.6 5.6 0 0 1-2.5-4.5c0-1.6 1.1-2.3 2.5-1.5l25.4 14.6a5.7 5.7 0 0 1 2.6 4.5c0 1.6-1.2 2.3-2.6 1.5L37.1 80M93 80L82.7 86c-1.4.8-2.6.1-2.6-1.5a5.7 5.7 0 0 1 2.6-4.5l25.4-14.6c1.4-.8 2.5-.1 2.5 1.5a5.6 5.6 0 0 1-2.5 4.5L98 77v26.8a5.7 5.7 0 0 1-2.5 4.4c-1.4.8-2.6.1-2.6-1.5" fill="#fff"/>
        </symbol>
        <symbol id="rec-glyph" viewBox="0 0 170 87">
            <title>RE:Creation</title>
            <path d="M10 0h150a10 10 0 0 1 10 10v67a10 10 0 0 1-10 10H10A10 10 0 0 1 0 77V10A10 10 0 0 1 10 0z" fill="#a50000"/><path d="M10 6h150a4 4 0 0 1 4 4v67a4 4 0 0 1-4 4H10a4 4 0 0 1-4-4V10a4 4 0 0 1 4-4z" fill="#e50000"/><path d="M29.4 59.8V27.1h15a10 10 0 0 1 4.5 1 11.5 11.5 0 0 1 3.4 2.6 12.2 12.2 0 0 1 2.3 3.6 11 11 0 0 1 .8 4.2 11.6 11.6 0 0 1-1.2 5.3 10.8 10.8 0 0 1-3.5 4l7 12H47.5l-5.8-10h-3.3v10zm9-17.9H44a2 2 0 0 0 1.5-.9 4.1 4.1 0 0 0 .7-2.6 3.7 3.7 0 0 0-.8-2.6 2.3 2.3 0 0 0-1.7-.9h-5.4zM86 52v7.8H62.5V27.1h22.9v7.8h-14v4.6h12v7.3h-12V52zM92.8 44.4v-8.5h7.1v8.5zm0 15.4v-8.5h7.1v8.5zM110.1 43.2a16.3 16.3 0 0 1 4.5-11.1 16.9 16.9 0 0 1 5.2-3.8 16.7 16.7 0 0 1 7-1.4 16.5 16.5 0 0 1 8.3 2 12.7 12.7 0 0 1 5.2 5.2l-6.9 4.8a5.9 5.9 0 0 0-1.2-2 6.2 6.2 0 0 0-1.7-1.2 7.3 7.3 0 0 0-1.9-.6 10.7 10.7 0 0 0-2-.2 6.7 6.7 0 0 0-5.6 2.7 8.6 8.6 0 0 0-1.3 2.8 11 11 0 0 0-.4 3 10.6 10.6 0 0 0 .5 3.3 8.5 8.5 0 0 0 1.4 2.8 7.2 7.2 0 0 0 2.4 2 6.8 6.8 0 0 0 3.2.6 9.1 9.1 0 0 0 1.9-.2 7 7 0 0 0 1.8-.7 6.3 6.3 0 0 0 1.6-1.2 5.6 5.6 0 0 0 1.2-1.9l7.3 4.4a9.3 9.3 0 0 1-2.2 3.2 14.3 14.3 0 0 1-3.4 2.4 18.2 18.2 0 0 1-4.1 1.5 19 19 0 0 1-4.3.5 15.2 15.2 0 0 1-6.7-1.5 16.8 16.8 0 0 1-5.2-3.8 17.5 17.5 0 0 1-3.4-5.4 16.7 16.7 0 0 1-1.2-6.2z" fill="#fff"/>
        </symbol>
        <symbol id="uxd-glyph" viewBox="0 0 180 146">
            <title>UX Design</title>
            <path d="M90 146a13.8 13.8 0 0 1-8.7-3L3.8 80.6a9.4 9.4 0 0 1 0-15L81.3 2.9a14.3 14.3 0 0 1 17.3 0l77.6 62.6a9.4 9.4 0 0 1 0 15l-77.5 62.6A13.8 13.8 0 0 1 90 146z" fill="#4e7f0e"/><path d="M172.3 70.2L94.8 7.6a8.2 8.2 0 0 0-9.6 0L7.6 70.2a3.3 3.3 0 0 0 0 5.6l77.6 62.6a8.2 8.2 0 0 0 9.6 0l77.5-62.6a3.3 3.3 0 0 0 0-5.6z" fill="#70cc14"/><path d="M125 102.4L95.6 73l29.6-29.4-5.6-5.5L90 67.5 60.5 38l-5.6 5.5L84.5 73l-29.6 29.4 5.6 5.5L90 78.5l29.5 29.4z" fill="#344c0b"/><path d="M45.9 80.2a4.2 4.2 0 0 0 2.2-.6 4.7 4.7 0 0 0 1.6-1.5 7 7 0 0 0 .8-2.2 12.1 12.1 0 0 0 .3-2.6V59h7.6v14.3a18.8 18.8 0 0 1-.7 5.4 11.7 11.7 0 0 1-2.3 4.3 11 11 0 0 1-4 3 13.7 13.7 0 0 1-5.6 1 13.3 13.3 0 0 1-5.7-1.1 10.9 10.9 0 0 1-3.9-3 12 12 0 0 1-2.2-4.4 19 19 0 0 1-.7-5.2V59h7.6v14.3a12.4 12.4 0 0 0 .3 2.6 7 7 0 0 0 .9 2.2 4.6 4.6 0 0 0 1.5 1.6 4.2 4.2 0 0 0 2.3.5zM121.8 86.8V59.2h10.7a15.8 15.8 0 0 1 6 1 12.2 12.2 0 0 1 7 7.4 15.8 15.8 0 0 1 1 5.4 15.5 15.5 0 0 1-1 5.7 12.3 12.3 0 0 1-2.9 4.3 12.7 12.7 0 0 1-4.4 2.8 15.9 15.9 0 0 1-5.8 1zm17-13.8a9.5 9.5 0 0 0-.5-3 6.6 6.6 0 0 0-1.3-2.2 5.5 5.5 0 0 0-2-1.5 6.3 6.3 0 0 0-2.6-.5h-3v14.4h3a6.3 6.3 0 0 0 2.7-.5 5.6 5.6 0 0 0 2-1.5 6.7 6.7 0 0 0 1.2-2.3 9.7 9.7 0 0 0 .4-3z" fill="#344c0b"/>
        </symbol>
        <symbol id="voyager-glyph" viewBox="0 0 64 64">
            <title>Voyager Innovations</title>
            <path d="M15.4 35.4a12.8 12.8 0 0 0 .3 2.9 6 6 0 0 1 1-1.2c2.7-2.8 9.6-4 11.9-1.7 2.1 2.1 1.1 9.2-1.7 12a6 6 0 0 1-1.2 1 12.7 12.7 0 0 0 2.9.2A13.2 13.2 0 0 0 41 39.8L56.3 7.7l-32 15.2a13.2 13.2 0 0 0-9 12.5z" fill="#f59b19"/><path d="M6.8 32a25.2 25.2 0 0 1 35-23.2l8-3.4A31.7 31.7 0 0 0 32 0a32 32 0 1 0 32 32 31.7 31.7 0 0 0-5.4-17.8l-3.4 8A25.2 25.2 0 1 1 6.8 32z" fill="#2c1f5a"/>
        </symbol>
        <symbol id="paymaya-glyph" viewBox="0 0 64 64">
            <title>PayMaya</title>
            <path d="M56.8 51.1c-.8-3-1.7-5.8-2.7-8.7a1.2 1.2 0 0 0-1-.8l-4.1-.4a56 56 0 0 1-14.3-3.3c-6-2.3-11-5.9-14.4-11.6a19 19 0 0 1-1.9-17.1c.3-.7.9-1.6.6-2-.1-.3-.5-.1-.7-.1a21.5 21.5 0 0 0-6.6 1.5A18.6 18.6 0 0 0 0 26a22 22 0 0 0 3.6 11.3 31.2 31.2 0 0 0 12 11 59.8 59.8 0 0 0 18 6c7 1.4 20 1.6 20.9 1.7h2c1-.1 1.3-.8 1.1-1.6l-.8-3.3z" fill="#1a79ff"/><path d="M64 36.4l-.7-2.6a77.2 77.2 0 0 0-8-19.9A33.6 33.6 0 0 0 46 3.6C42.1.7 37.5-.8 32.5.4A15 15 0 0 0 21 11.6 15.9 15.9 0 0 0 22 23a22.8 22.8 0 0 0 11.3 11 48.3 48.3 0 0 0 18.1 4.3 105.4 105.4 0 0 0 11.3 0 1.3 1.3 0 0 0 1.1-1.8z" fill="#80cc33"/>
        </symbol>
    </defs>
</svg>