<svg xmlns="http://www.w3.org/2000/svg" width="640" height="640"><defs><clipPath id="a"><path d="M0 0h640v640H0z"/></clipPath></defs><g clip-path="url(#a)"><path fill="rgba(255,255,255,0)" d="M0 0h640v640H0z"/><path d="M331 586.8a18.8 18.8 0 0 1-14.4-6.8c-.3-.4-35.4-41.3-203.7-184.8a229 229 0 0 1-74.6-120.1c-10.8-44-7.7-89.3 8.8-127.4a152.3 152.3 0 0 1 63-72.4c30.5-17.7 66.5-24.4 107.2-20 35.9 4 68 22.8 90.5 53.2a147 147 0 0 1 28.7 95.8c-2.2 31.3-15.7 59-38.1 78.2-25.4 21.6-60.3 32-103.6 30.7a18.8 18.8 0 1 1 1-37.7c33.3 1 60.3-6.5 78-21.7 18.9-16 24-37.2 25-52 3.4-47.8-30.3-103-85.5-109-61.6-6.7-109.6 18.7-131.6 69.8A164.3 164.3 0 0 0 74.9 266c9.6 39 31.2 73.8 62.4 100.5C256.3 468 309.6 518.8 331.6 541a680 680 0 0 1 17.4-15.3c30.8-26.1 75.7-60.6 129.9-99.6 85.7-61.9 101-132 86.7-176.9-12-38-45.2-61.8-86.7-62.2-30-.3-53.4 11.4-65.8 33a70 70 0 0 0 .2 69c7.5 12.3 22.5 26.9 51.7 25.9a18.8 18.8 0 1 1 1.3 37.6c-36.5 1.3-67.6-14.8-85.3-44-19.2-32-19.5-74-.6-107.1 19.2-33.5 55.3-52.6 99-52 28.7.2 55.5 8.9 77.2 25a125.6 125.6 0 0 1 45 63.4c18.2 57.5 1.4 145.2-100.7 218.8C378.6 545 347.7 577.7 345.5 580a18.9 18.9 0 0 1-14.4 6.8zm14.4-6.6zm2.6-4a18.7 18.7 0 0 1-2.3 3.6 17.4 17.4 0 0 0 2.3-3.6z" fill="#ff9a9a"/></g></svg>