<svg xmlns="http://www.w3.org/2000/svg" width="260" height="90" viewBox="0 0 260 90"><g transform="translate(42.748 78.926)"><path d="M136.418,404.126a.179.179,0,0,1,.077.144.581.581,0,0,1-.069.227,3.066,3.066,0,0,1-.229.379,4.919,4.919,0,0,1-.573.644,4.809,4.809,0,0,1-.9.7,5.342,5.342,0,0,1-1.292.522,6.278,6.278,0,0,1-1.719.228,4.956,4.956,0,0,1-3.721-1.545,5.593,5.593,0,0,1-1.49-4.052,5.355,5.355,0,0,1,1.505-3.992,4.982,4.982,0,0,1,3.63-1.484,3.817,3.817,0,0,1,3.438,1.621l-.015-1.348c-.02-.121.041-.182.184-.182h.855q.2,0,.2.182v3.3a.175.175,0,0,1-.2.2h-.962c-.123,0-.184-.065-.184-.2v-.136a2,2,0,0,0-.955-1.446,3.728,3.728,0,0,0-2.376-.75,3.574,3.574,0,0,0-2.56,1.113,4.937,4.937,0,0,0,.008,6.317,3.708,3.708,0,0,0,2.689,1.129,4.2,4.2,0,0,0,2.629-.743,4.3,4.3,0,0,0,1.1-1.166q.122-.227.29-.091Z" transform="translate(-126.5 -395.901)" fill="#727272"/><path d="M160.134,403.042v-5.8h-1.177a.161.161,0,0,1-.184-.181v-.773a.162.162,0,0,1,.184-.182h3.683a.162.162,0,0,1,.184.182v.773a.162.162,0,0,1-.184.181h-1.177v5.665a4.2,4.2,0,0,1-1.077,3.113,4.142,4.142,0,0,1-7.175-3.113V397.24h-1.162c-.133,0-.2-.061-.2-.181v-.773c0-.121.066-.182.2-.182h3.668q.2,0,.2.182v.773c0,.121-.066.181-.2.181h-1.176v5.711q0,2.908,2.811,2.908a2.7,2.7,0,0,0,2.109-.75A2.988,2.988,0,0,0,160.134,403.042Z" transform="translate(-140.42 -396.013)" fill="#727272"/><path d="M187.765,406.981h-1.329q-.551,0-.917-.727l-1.436-2.893a1.788,1.788,0,0,0-.39-.561.9.9,0,0,0-.574-.2h-1.941v3.242h1.375a.161.161,0,0,1,.184.182v.773a.161.161,0,0,1-.184.181h-3.866c-.133,0-.2-.061-.2-.181v-.773q0-.182.2-.182h1.162v-8.6h-1.162c-.133,0-.2-.061-.2-.181v-.773q0-.182.2-.182h4.707a4.011,4.011,0,0,1,2.66.856,2.975,2.975,0,0,1,1.024,2.416,2.774,2.774,0,0,1-2.246,2.969,3.527,3.527,0,0,1,.718,1.015l1.283,2.484h.933a.162.162,0,0,1,.184.182v.773A.161.161,0,0,1,187.765,406.981Zm-6.587-5.454h1.956q2.6,0,2.6-2.106,0-2.181-2.6-2.181h-1.956Z" transform="translate(-155.046 -396.013)" fill="#727272"/><path d="M212.043,406.981H208.59a.161.161,0,0,1-.184-.181v-.773a.162.162,0,0,1,.184-.182h1.07l-.993-2.621H204.4l-.993,2.621h1.07a.162.162,0,0,1,.184.182v.773a.161.161,0,0,1-.184.181H201.04a.161.161,0,0,1-.184-.181v-.773a.161.161,0,0,1,.184-.182h1.024l3.286-8.6h-.826c-.133,0-.2-.061-.2-.181v-.773c0-.121.066-.182.2-.182H206.6a.882.882,0,0,1,.558.152,1.177,1.177,0,0,1,.329.5L211,405.845h1.039a.161.161,0,0,1,.183.182v.773A.161.161,0,0,1,212.043,406.981Zm-3.79-4.8-1.7-4.5h-.046l-1.712,4.5Z" transform="translate(-167.328 -396.013)" fill="#727272"/><path d="M229.9,406.981h-3.561a.175.175,0,0,1-.2-.2v-.743a.175.175,0,0,1,.2-.2H227.5v-8.6H224.61v1.606a.188.188,0,0,1-.214.212h-.855a.188.188,0,0,1-.214-.212V396.3q0-.2.214-.2h9.215q.214,0,.214.2v2.546a.188.188,0,0,1-.214.212h-.871q-.2,0-.2-.212V397.24h-2.857v8.6h1.07c.142,0,.214.066.214.2v.743C230.111,406.915,230.04,406.981,229.9,406.981Z" transform="translate(-179.666 -396.013)" fill="#727272"/><path d="M256.042,406.981h-8.115c-.133,0-.2-.061-.2-.181v-.773c0-.121.066-.182.2-.182h1.162v-8.6h-1.162c-.133,0-.2-.061-.2-.181v-.773c0-.121.066-.182.2-.182h8.115c.132,0,.2.061.2.182v2.439a.175.175,0,0,1-.2.2h-.825q-.183,0-.183-.2V397.24h-4.615V401h3.866q.2,0,.2.182v.772c0,.122-.066.182-.2.182h-3.866v3.711h4.6V404.36c0-.122.066-.182.2-.182h.825c.132,0,.2.06.2.182V406.8C256.241,406.92,256.174,406.981,256.042,406.981Z" transform="translate(-193.065 -396.013)" fill="#727272"/><path d="M274.259,406.981h-4.386a.161.161,0,0,1-.184-.181v-.773a.161.161,0,0,1,.184-.182h1.176v-8.6h-1.176a.161.161,0,0,1-.184-.181v-.773a.161.161,0,0,1,.184-.182H274a5.564,5.564,0,0,1,4.035,1.447,5.274,5.274,0,0,1,1.5,3.977,5.479,5.479,0,0,1-1.422,3.992A5.12,5.12,0,0,1,274.259,406.981Zm-1.879-1.136h1.513q4.248-.03,4.249-4.287a4.4,4.4,0,0,0-1.093-3.181,4.24,4.24,0,0,0-3.2-1.136H272.38Z" transform="translate(-205.123 -396.013)" fill="#727272"/><path d="M315.357,406.869h-.81c-.133,0-.2-.061-.2-.181l.015-1.045a4.868,4.868,0,0,1-3.583,1.333,4.989,4.989,0,0,1-3.737-1.545,5.586,5.586,0,0,1-1.5-4.06,5.666,5.666,0,0,1,.757-2.954,4.925,4.925,0,0,1,1.925-1.893,5.307,5.307,0,0,1,2.53-.621,3.839,3.839,0,0,1,3.362,1.439l-.015-1.167c-.02-.121.04-.182.184-.182h.855q.2,0,.2.182v3.121c0,.121-.066.181-.2.181h-.962a.162.162,0,0,1-.184-.181v-.182q0-.666-.924-1.318a4.01,4.01,0,0,0-2.361-.651,3.553,3.553,0,0,0-2.59,1.174,4.279,4.279,0,0,0-1.154,3.136,4.159,4.159,0,0,0,1.162,3.106,3.619,3.619,0,0,0,2.6,1.144,4.765,4.765,0,0,0,2.269-.455,3.414,3.414,0,0,0,1.245-1.075v-1.182H311.4q-.184,0-.184-.2v-.7a.161.161,0,0,1,.184-.181h3.958a.161.161,0,0,1,.184.181v4.59A.161.161,0,0,1,315.357,406.869Z" transform="translate(-224.811 -395.901)" fill="#727272"/><path d="M334.966,406.981H331.3c-.133,0-.2-.061-.2-.181v-.773c0-.121.066-.182.2-.182h1.162v-8.6H331.3c-.133,0-.2-.061-.2-.181v-.773c0-.121.066-.182.2-.182h3.668q.2,0,.2.182v.773c0,.121-.066.181-.2.181H333.79v8.6h1.176q.2,0,.2.182v.773C335.165,406.92,335.1,406.981,334.966,406.981Z" transform="translate(-238.843 -396.013)" fill="#727272"/><path d="M347.615,406.981H343.4c-.133,0-.2-.061-.2-.181v-.773q0-.182.2-.182h1.162v-8.6H343.4c-.133,0-.2-.061-.2-.181v-.773q0-.182.2-.182h7.84q.2,0,.2.182v2.439a.175.175,0,0,1-.2.2h-.825q-.183,0-.184-.2V397.24h-4.34V401h3.591c.133,0,.2.061.2.182v.772c0,.122-.067.182-.2.182h-3.591v3.711h1.727a.162.162,0,0,1,.184.182v.773A.162.162,0,0,1,347.615,406.981Z" transform="translate(-245.486 -396.013)" fill="#727272"/><path d="M370.986,406.981h-3.56a.175.175,0,0,1-.2-.2v-.743a.175.175,0,0,1,.2-.2h1.161v-8.6H365.7v1.606a.188.188,0,0,1-.214.212h-.855a.188.188,0,0,1-.214-.212V396.3c0-.131.071-.2.214-.2h9.214q.214,0,.214.2v2.546a.188.188,0,0,1-.214.212h-.871q-.2,0-.2-.212V397.24h-2.858v8.6h1.07c.142,0,.214.066.214.2v.743C371.2,406.915,371.129,406.981,370.986,406.981Z" transform="translate(-257.135 -396.013)" fill="#727272"/><path d="M404.8,406.981H399.86c-.133,0-.2-.061-.2-.181v-.773q0-.182.2-.182h1.162v-8.6H399.86c-.133,0-.2-.061-.2-.181v-.773q0-.182.2-.182h4.921a3.318,3.318,0,0,1,2.376.8,2.765,2.765,0,0,1,.848,2.105,2.46,2.46,0,0,1-1.36,2.288,2.451,2.451,0,0,1,1.956,2.575,2.865,2.865,0,0,1-.955,2.264A4.2,4.2,0,0,1,404.8,406.981Zm-2.445-6.1h2.338a2.326,2.326,0,0,0,1.383-.455,1.606,1.606,0,0,0,.588-1.378,1.554,1.554,0,0,0-.619-1.371,2.591,2.591,0,0,0-1.521-.432h-2.17Zm0,4.969h2.338a3.1,3.1,0,0,0,1.887-.507,1.83,1.83,0,0,0,.68-1.568q0-1.893-2.476-1.893h-2.43Z" transform="translate(-276.488 -396.013)" fill="#727272"/><path d="M432.8,401.378a5.568,5.568,0,0,1-1.505,4.045,5.411,5.411,0,0,1-7.6-.016,5.549,5.549,0,0,1-1.528-4.044,5.212,5.212,0,0,1,1.574-3.969,5.277,5.277,0,0,1,3.76-1.492,5.22,5.22,0,0,1,5.3,5.476Zm-8.03,3.211a3.78,3.78,0,0,0,5.448,0,4.294,4.294,0,0,0,1.162-3.181,4.2,4.2,0,0,0-1.185-3.166,3.762,3.762,0,0,0-5.4,0,4.181,4.181,0,0,0-1.192,3.166A4.276,4.276,0,0,0,424.771,404.589Z" transform="translate(-288.845 -395.901)" fill="#727272"/><path d="M457.776,406.981h-3.683a.161.161,0,0,1-.184-.181v-.773a.161.161,0,0,1,.184-.182H455.1l-2.537-3.53-2.613,3.53h1.024q.2,0,.2.182v.773c0,.121-.066.181-.2.181h-3.668c-.133,0-.2-.061-.2-.181v-.773c0-.121.066-.182.2-.182h1.176l3.3-4.348-3.316-4.257h-1.162c-.133,0-.2-.061-.2-.181v-.773c0-.121.066-.182.2-.182h3.668q.2,0,.2.182v.773c0,.121-.066.181-.2.181h-1.039l2.6,3.423,2.6-3.423H454.2a.162.162,0,0,1-.184-.181v-.773a.162.162,0,0,1,.184-.182h3.683a.161.161,0,0,1,.183.182v.773a.161.161,0,0,1-.183.181h-1.268l-3.3,4.257,3.24,4.348h1.223a.161.161,0,0,1,.183.182v.773A.161.161,0,0,1,457.776,406.981Z" transform="translate(-302.541 -396.013)" fill="#727272"/><path d="M482.3,406.981h-8.115c-.133,0-.2-.061-.2-.181v-.773c0-.121.066-.182.2-.182h1.162v-8.6h-1.162c-.133,0-.2-.061-.2-.181v-.773c0-.121.066-.182.2-.182H482.3c.132,0,.2.061.2.182v2.439a.175.175,0,0,1-.2.2h-.825q-.183,0-.183-.2V397.24h-4.616V401h3.867q.2,0,.2.182v.772c0,.122-.066.182-.2.182h-3.867v3.711h4.6V404.36c0-.122.066-.182.2-.182h.825c.132,0,.2.06.2.182V406.8C482.5,406.92,482.43,406.981,482.3,406.981Z" transform="translate(-317.299 -396.013)" fill="#727272"/><path d="M497.169,406.869h-.855c-.133,0-.2-.061-.2-.181v-3.545a.175.175,0,0,1,.2-.2h.963c.122,0,.184.065.184.2v.318a1.456,1.456,0,0,0,.351.765,4.7,4.7,0,0,0,.7.78,3.075,3.075,0,0,0,.94.523,3.623,3.623,0,0,0,1.276.219,3.07,3.07,0,0,0,1.841-.485,1.573,1.573,0,0,0,.665-1.348,1.139,1.139,0,0,0-.374-.856,2.694,2.694,0,0,0-.97-.569q-.6-.211-1.322-.394t-1.452-.416a7.738,7.738,0,0,1-1.322-.561,2.642,2.642,0,0,1-.97-.91,2.474,2.474,0,0,1-.375-1.37,2.656,2.656,0,0,1,.97-2.106,3.864,3.864,0,0,1,2.605-.833,3.652,3.652,0,0,1,3.026,1.2l-.031-.94c0-.121.066-.182.2-.182h.856a.161.161,0,0,1,.183.182v3.3a.161.161,0,0,1-.183.181h-.963a.161.161,0,0,1-.183-.181v-.425a1.764,1.764,0,0,0-.7-1.257,2.982,2.982,0,0,0-2.063-.636,2.593,2.593,0,0,0-1.627.477,1.474,1.474,0,0,0-.619,1.219,1.233,1.233,0,0,0,.382.909,2.747,2.747,0,0,0,.993.606,13.643,13.643,0,0,0,1.345.416q.734.19,1.467.417a8.073,8.073,0,0,1,1.345.545,2.7,2.7,0,0,1,.993.871,2.247,2.247,0,0,1,.382,1.311,2.82,2.82,0,0,1-.963,2.2,4.184,4.184,0,0,1-2.873.863,4.39,4.39,0,0,1-2.323-.561,4,4,0,0,1-1.33-1.212l.016,1.485A.162.162,0,0,1,497.169,406.869Z" transform="translate(-329.45 -395.901)" fill="#727272"/></g><path d="M71.292,301.657c.26.726-1.073,2.122-1.5,2.586a6.814,6.814,0,0,1-2.591,1.609c-2.012.756-3.633.159-5.11-1.39-3.062-3.23-2.995-7.416-2.248-11.433,0,0-.044-.934.131-1.092a5.35,5.35,0,0,1-.031.661l.154-.86c0,.046-.043.05-.09.055-.195-.545.26-1.715.4-2.245l.807-2.425c.478-1.408.868-2.76,1.249-4.205A37.99,37.99,0,0,1,64.1,278.3a14.489,14.489,0,0,1,1.079-2.546,2.307,2.307,0,0,0-.082.619c.252-.822.456-1.64.657-2.5l-.265.683c-.106-.6.825-2.24-.184-2.378-.817-.11-1.872,1.212-2.343,1.727a37.775,37.775,0,0,0-4.769,6.984,23.679,23.679,0,0,1-2.177,3.448,14.338,14.338,0,0,0-1.276,2.47c-.713,1.43-1.334,2.851-2,4.23a19.038,19.038,0,0,0-1.447,3.144c-.343,1.348-.746,2.56-2.333,1.349-1.539-1.214-1.711-2.983-1.507-4.787.522-5.356,2.841-10.744,5.121-15.564a38.705,38.705,0,0,0,2.393-6.568c.1-.385.413-1.12.023-1.223-.487-.141-1.528.851-1.834,1.115a29.33,29.33,0,0,0-4.88,6.336c-1.435,2.3-2.72,4.675-4,7.1-1.365,2.525-2.632,5.088-3.9,7.651a21.94,21.94,0,0,0-1.628,3.725c-.4,1.212-.708,2.462-1.06,3.718a12.072,12.072,0,0,1-.737,2.652,1.829,1.829,0,0,1-2.615.391,2.668,2.668,0,0,1-1.071-2.246,24.33,24.33,0,0,1,1.511-7.846c.76-2.421,1.575-4.753,2.237-7.211,1.314-5.01,3.49-9.914,4.364-15.07l.045.465.115-1.749c.079-1.134-.077-2.247-1.453-1.787a5.585,5.585,0,0,0-2.405,2.061,18.627,18.627,0,0,0-3.188,6.691,8.6,8.6,0,0,0-.231,1.525c-.011.377.161.689-.135,1.046-.518.519-1.164.206-1.59-.27a5.525,5.525,0,0,1-.731-4.111,22.141,22.141,0,0,1,1.312-3.084c.109-.339.026-.707.271-1.106l.406-.7c.462-.608.929-1.169,1.442-1.734a10.478,10.478,0,0,1,3.424-2.3c1.457-.609,3.091-.859,4.387.285a7.574,7.574,0,0,1,1.725,3.124,9.665,9.665,0,0,1-.116,4.66c-.291,1.39-.578,2.826-.916,4.22-.3,1.344-.69,2.649-1.033,4-.276,1.059-.368,2.054-.6,3.11a74.758,74.758,0,0,1,7.148-11.766c1.39-1.777,4.575-7.528,7.459-4.658a5.555,5.555,0,0,1,1.412,5.266c-.5,1.645-1.541,3.153-2.1,4.755-1.429,4.316-3.194,8.57-4.084,13.07,1.41-3.047,2.866-6.1,4.571-9.031-.406.7-.906,1.4-1.261,2.14.718-1.384,1.361-2.573,1.526-2.823a39,39,0,0,1,4.881-6.807c1.027-1.131,2.412-2.484,4.055-2.641,1.92-.23,3.308,1.374,3.8,3.065,1.144,3.976-1.259,8.009-2.572,11.563.076-.195.2-.348.3-.357.047,0-.879,3.137-.993,3.43-.437,1.357-.827,2.709-1.268,4.019a47.651,47.651,0,0,0-1.816,7.64c-.164,1.236-.482,3.334.952,3.948A6.819,6.819,0,0,0,68.9,302.4C69.357,302.217,71.079,300.925,71.292,301.657ZM37.368,283.1c.642-2.174,1.335-4.307,2.126-6.4a33.436,33.436,0,0,0,1.672-6.687,22.766,22.766,0,0,1-.638,2.221c-.508,1.6-.865,3.277-1.373,4.875C38.5,279.1,37.929,281.078,37.368,283.1Zm15.326,3.656s1.12-2.126,2.15-4.2A36.677,36.677,0,0,1,52.694,286.76Zm2.231-4.346-.08.148C54.887,282.512,54.93,282.461,54.925,282.414Zm.165-.251,0-.046-.161.3Zm4.178-6.739.038-.1.043-.051a.046.046,0,0,1-.043.051l.043-.051.084-.1.043-.051.08-.149-.085.1a1.491,1.491,0,0,0-.246.4l0-.046-.08.148Zm.2-.349-.043.052A.047.047,0,0,0,59.471,275.076Zm.085-.1,1.561-1.981A21.476,21.476,0,0,0,59.556,274.974ZM59.89,295c-.123.2-.114.292.032.325C60,295.127,59.989,295.034,59.89,295Zm.262-1.2c.334-1.441.808-2.9,1.287-4.3a23.726,23.726,0,0,0,1.521-5.312c.114-.292.1-.432-.045-.465a10.74,10.74,0,0,0-.695,2.6c-.289.92-.579,1.841-.92,2.719A29.927,29.927,0,0,0,60.153,293.8Z" transform="translate(-31.698 -242.998)" fill="#ffb3cc"/><path d="M140.249,301.092a16.324,16.324,0,0,1-1.14,2.41c-.926,1.685-1.945,3.379-2.918,5.069a24.119,24.119,0,0,1-3.429,4.7,31.858,31.858,0,0,1-2.4,2.108c0-.047.038-.1.08-.149l-.315.171c.23-.069-.6.621-.829.737a2.6,2.6,0,0,1-1.965-.236,3.19,3.19,0,0,1-1.374-1.465,5.084,5.084,0,0,1-.632-3.086c.024-.237.419-3,.753-2.984.094-.009-.058.381-.007.423l.216-1.194a56.4,56.4,0,0,1,2.039-5.831c-1.381.414-3.169.538-4.273-.578-.317-.345-.255-.68-.376-.95-.177-.359-.383-.527-.508-.843-.691-2.236,1.677-5.655,4.079-4.335l-.107-.131c.02-.283.651.361.721.589.018.186-.231,1.525-.475,1.454a9.3,9.3,0,0,1,.2-.911c-.243.916-1.134,1.987-1.137,2.926-.026.707.349.671.973.752.915.148,2.309-.126,3.468.092a15.22,15.22,0,0,0-2.289-.157.047.047,0,0,1-.052-.042c.713.026,1.464-.046,2.088.036,1.393.2,2.287.627,1.865,2.123-.432,1.4-1.005,2.82-1.484,4.228-.436,1.357-.77,2.8-1.155,4.2-.1.479-.939,2.532-.518,2.961.524.514,2.88-2.059,3.511-2.871-.127.154-.268.167-.353.269a13.826,13.826,0,0,1,.935-1.592l1.194-1.852,2.214-3.546,2.247-3.69c.207-.3,1.176-2.038,1.575-.855A3.475,3.475,0,0,1,140.249,301.092Zm-13.331,13.953c-.051-.043-.1-.084-.107-.131l.051.042c-.285-.489-.569-.979-.69-1.249l.2.592-.282-.959,0-.046a.352.352,0,0,1-.06-.135.142.142,0,0,0,.056.089l-.023-.233a8.111,8.111,0,0,1-.087-1.87l0-.047a5.456,5.456,0,0,0-.019,1.27,5.663,5.663,0,0,0,.313,1.755,7.506,7.506,0,0,0,.831,1.235c0-.046-.009-.093-.056-.089a2.8,2.8,0,0,0,1.143.548,2.635,2.635,0,0,1-1.264-.819Zm-.957-3.995,0,.046c0-.046.038-.1.033-.144C126,311,125.957,311,125.962,311.051Zm.055-.9c.009.093-.033.144-.029.19C125.983,310.3,126.026,310.246,126.017,310.153Zm.094-.009a28.242,28.242,0,0,1,.975-3.616l.693-2.133a26.654,26.654,0,0,1,1.18-2.977c-.32.125-.814,1.862-.895,2.011a22.789,22.789,0,0,0-.891,2.528A24.6,24.6,0,0,0,126.111,310.145Zm.4-11.028a.045.045,0,0,1,.042-.05Zm0,.047a2.114,2.114,0,0,0,.36.294,1.882,1.882,0,0,0,.97.236,2.308,2.308,0,0,1-1.107-.176A.578.578,0,0,1,126.512,299.163Zm.135,15.532a.159.159,0,0,0-.056-.088C126.6,314.654,126.643,314.649,126.648,314.7Zm5.366-12.065-.782,2.188.787-2.142Zm0-.047.047,0,0-.047Zm0,0,.047,0,0-.047Z" transform="translate(-81.857 -261.042)" fill="#ffb3cc"/><path d="M171.321,293.335c.332,1.471-1.9,2.9-2.815,3.7a36.224,36.224,0,0,1-3.963,3.1,8.628,8.628,0,0,0-1.251.777c-.476.468-.386.413-.22,1.148a15.351,15.351,0,0,1,.483,2.537,9.93,9.93,0,0,1-.188,3.916c-.846,2.993-2.918,5.069-6.166,5.286-2.868.226-6.064-.971-5.752-4.1a6.617,6.617,0,0,1-.153.86c-.347-.156-.118-1.21-.046-1.452a9.359,9.359,0,0,1,3.071-4.473c.739-.681,1.479-1.362,2.227-1.951.574-.43,1.928-1.123,1.959-1.783a8.714,8.714,0,0,0-.924-2.683,26.145,26.145,0,0,1-.877-2.687,8.477,8.477,0,0,0-.149-1.535,9.129,9.129,0,0,1-.733-2.184,5.566,5.566,0,0,1,.009-2.349c.267-1.152,2.506-3.949,3.886-2.908-.023-.232.674.594.748.868.018.186,0,1.926-.289,1.906,0,0,.053-.428.068-.758a7.4,7.4,0,0,0-.467,2.017,6.16,6.16,0,0,0,.322,1.848c-.009-.093-.018-.186.071-.241-.046,0,.7,2.375,1.317,4.288-.451-1.224-1.018-2.673-1.291-3.54.574,2.011,1.238,3.967,1.9,5.924.042-.051.08-.149.01-.376a1.86,1.86,0,0,1,.121.27,65.679,65.679,0,0,0,5.6-3.775,25.126,25.126,0,0,1,2.444-2.159c.451-.232.836-.174,1.04.464Zm-15.352,17.527,1.265-.637c.051.042-.344.362-.339.408a5.349,5.349,0,0,0,1.333-1.4l-.217.209a12.632,12.632,0,0,0,1.079-2.546,10.18,10.18,0,0,0-.044-3.377,1.187,1.187,0,0,1-.31.218l.3-.311-.532.379c.272-.121-.552.663-.683.769l-1.318,1.065a11.408,11.408,0,0,0-2.454,2.536c-.364.645-1.4,2.669-.142,2.925A3.909,3.909,0,0,0,155.969,310.862Zm6.148-1.573a8.172,8.172,0,0,1-5.747,3.743,10.2,10.2,0,0,0,3.584-1.141A4.742,4.742,0,0,0,162.117,309.289Zm-.429-12.216a11.285,11.285,0,0,1,.408,1.275A11.887,11.887,0,0,1,161.688,297.072Zm1.419,5.829c.009.093.018.186.069.228A1.983,1.983,0,0,1,163.107,302.9Z" transform="translate(-97.265 -256.376)" fill="#ffb3cc"/><path d="M200.056,324.827c-.257.776-.7,1.054-1.3,1.721-.514.566-.924,1.215-1.861.835a4.362,4.362,0,0,1-1.483-1.126c-.793-1.333.758-3.407,1.784-4.069a3.189,3.189,0,0,1,2.648-.534c.239.024.221-.163.482.095.318.345.077.791.109,1.117C201.091,322.8,200.132,324.632,200.056,324.827Z" transform="translate(-121.47 -275.856)" fill="#ffb3cc"/><path d="M250.552,257.217c-.455,1.171-.956,2.346-1.458,3.521a17.949,17.949,0,0,0-.336,1.91c-.3,1.3-.788,2.611-1.13,3.959l-2.152,7.109c-.637,2.221-1.565,4.376-1.967,6.575a31.236,31.236,0,0,1-2.343,6.611,38.938,38.938,0,0,1-3.013,6.534,9.3,9.3,0,0,1-2.851,3.325,5.589,5.589,0,0,1-4.168.021c-4.2-1.289-4.968-5.3-3.378-8.928a19.613,19.613,0,0,1,4.128-5.8c.654-.579,1.2-1.289,1.8-1.91.429-.464,1.174-1.568,1.874-1.682,1.446-.232-.6,2.124-.806,2.426a30.489,30.489,0,0,0-3.257,6.463c-.569,1.463-2.15,5.183-.644,6.542,1.408,1.321,2.988-.943,3.644-1.992,2.526-4.233,3.891-9.2,5.283-13.889,1.379-4.828,2.513-9.727,3.742-14.634a57.04,57.04,0,0,1-4.836,8.258c-1.174,1.568-2.683,3.591-4.726,4.02-3.48.755-6.82-3.388-7.024-6.468,0-.046-.283-.959-.113-1.163l.081.838.037-1.084c-.118.247-.16-1.159-.14-1.443a21.411,21.411,0,0,1,.621-2.876c.418-1.543.978-3.1,1.4-4.642a21.313,21.313,0,0,1,1.846-4.4c.161-.3,1.787-3.552,2.129-3.444a3.132,3.132,0,0,0-.228.586c.368-.6.765-1.388,1.261-2.14l-.339.409c.115-.763,1.071-1.653,1.487-2.255.627-.858,1.207-1.712,1.886-2.529,1.277-1.484,2.831-3.041,4.827-3.466a5.83,5.83,0,0,1,5.815,2.31,3.669,3.669,0,0,1,.689,1.719c.105.6.479,1.034.543,1.686.209,1.671-1.045,3.387-2.11,4.616-1.023,1.179-2.61,2.879-4.118,3.447-.87.318-.8.03-.557-.37-.132.107-.259.26-.268.167a15.963,15.963,0,0,1,1.777-3.175s-.578,1.37-.616,1.467a19.068,19.068,0,0,0,1.906-5.254,5.175,5.175,0,0,0-.059-3.047c-.956-1.553-3.639,2.038-4.771,3.555.547-.71,1.094-1.42,1.735-2.138.518-.519,1.451-1.641,2.2-1.713,1.643-.157.771,3.543.724,3.547-.239-.024.991-3.945-.8-3.4-1.518.473-2.872,2.622-3.75,3.833a54.3,54.3,0,0,0-6.2,11.252c-.8,2-1.5,4.089-2.153,6.123-.4,1.26-1.611,4.381-.414,5.488,1.407,1.321,4.239-1.72,4.927-2.443-.132.106-.641.719-.838.644,0,0,1.994-2.4,2.117-2.6l2.226-2.937c1.589-2.171,3.029-4.422,4.468-6.673a24.347,24.347,0,0,0,1.676-2.743,3.237,3.237,0,0,0,.2-.818c.791-2.095,4.458.044,4.757,1.659A2.516,2.516,0,0,1,250.552,257.217Zm-22.8,9.175a32.9,32.9,0,0,1,1.768-6.18,47.681,47.681,0,0,1,3.094-6.683c.486-.844.968-1.736,1.5-2.585a10.521,10.521,0,0,1,.926-1.685,16.878,16.878,0,0,0-2.375,3.843c-.892,1.541-1.678,3.213-2.467,4.838A26.519,26.519,0,0,0,227.756,266.392Zm10.1-14.584a.1.1,0,0,0,.085-.1A.1.1,0,0,1,237.851,251.808Zm5.829,23.911-.034.144A.172.172,0,0,1,243.68,275.719Zm.781-1.718a2.481,2.481,0,0,0-.415.6l-.365,1.115a3.905,3.905,0,0,1,.321-.594A11.837,11.837,0,0,0,244.461,274Zm4.546-15.133a115.352,115.352,0,0,0-3.838,12.67c.4-1.728,1.181-3.447,1.723-5.189.655-2.035,1.207-4.154,1.759-6.273Z" transform="translate(-138.809 -231.556)" fill="#ffb3cc"/><path d="M291.916,276.586c-.685,1.24-1.327,2.428-2.111,3.63-.817,1.346-1.8,3.458-3.4,3.988-.371.083-2.2-.212-2.18-.5l.094-.009c-.394-.15.023.232-.581-.132a3.79,3.79,0,0,1-1.094-1.023,6.2,6.2,0,0,1-1.57-2.011c-.069-.228-.326-1.894.049-1.93.094-.009.023.232.07.228l.059-.851c-.038.1-.034.144-.123.2a20.516,20.516,0,0,1,.445-3.706c.281-1.012.36-2.147,1.244-2.8a2.624,2.624,0,0,1,2.488-.237c.389.1,1.514.466,1.559.931.027.279-.2.348-.33.5a.284.284,0,0,1,.184-.065c.15.08-.46,1.124-.558,1.087-.094.009.024-.237.057-.381a24.069,24.069,0,0,0-1.75,4.91,20.228,20.228,0,0,1,1.242-3.312c.146.033-2.551,5.926-.878,6.564.787.3,1.942-.984,2.417-1.452a19.912,19.912,0,0,0,2.539-2.637.4.4,0,0,1-.319.124c-.211-.215,1.838-3.51,2.233-3.83.306-.264.945-.513,1.1.083C293.072,274.832,292.326,275.936,291.916,276.586Zm-8.229-8.137c-.06-.135-.341-1.564.2-1.381-.014-.14.482-.891.259-.26a10.851,10.851,0,0,0,.941-2.015l-.482.892a19.2,19.2,0,0,0,.846-2.993c-.005-.047-.139-.456-.055-.558-1.022-.279-.372-.9.019-1.27-.094.009-.141.013-.2-.075-.206-.168.344-.362.481-.422a2.6,2.6,0,0,1,2.131-.015,3.315,3.315,0,0,1,1.327,1.47,1.815,1.815,0,0,1-.541,1.742c-.17.2-.485.375-.7.583-.25.353-.162.767-.366,1.115-.118.246-.391.366-.509.612-.174.158-.161.3-.006.424a1.689,1.689,0,0,0-.438.37,5.073,5.073,0,0,1-1.161,1.708,4.521,4.521,0,0,0,1.2-1.336,3.3,3.3,0,0,1,1.262-1.154c-.42.557-.455,1.17-.982,1.6-.531.38-.078-.321-.634.3,0,0,.277-.073.145.033-.386.413-.75,1.058-1.29,1.345-.273.12-.442.324-.785.215-.347-.155-.224-.354-.331-.485A4.235,4.235,0,0,1,283.687,268.449Zm.245-1.386a.046.046,0,0,1,.051.042c.043-.051.043-.051.038-.1C283.978,267.059,283.978,267.059,283.932,267.063ZM284.194,280l-.058.381.067-.288,0-.047C284.236,279.949,284.236,279.949,284.194,280Zm.371-14.219a1.16,1.16,0,0,1-.161.3Z" transform="translate(-168.542 -241.891)" fill="#ffb3cc"/><path d="M316,263.346a11.273,11.273,0,0,1-5.786,5.3c-.273.12-1.31.172-1.522.427-.259.259-.157,1.8-.168,2.176-.078.664-.155,1.33-.279,2-.5,2.677-.815,5.761-2.1,8.184-1.12,2.126-3.289,3.7-5.658,2.231-2.064-1.258-2.372-4.423-2.439-6.577-.225-5.239,1.379-10.182,2.313-15.2a70.219,70.219,0,0,1,4.442-13.762,62.975,62.975,0,0,1,3.448-7.421c.973-1.689,2.506-4.935,4.642-5.374,4.226-.873,3.485,5.631,2.8,7.858a53.092,53.092,0,0,1-5.835,12.11c-1.44,2.251-2.977,4.464-4.562,6.682-.5.658-1,1.364-1.556,2.027a3.5,3.5,0,0,0-.709,1.476c-.167.721-.339,1.394-.463,2.064-.643,2.644-1.193,5.28-1.593,7.995-.246,1.855-.681,4.2-.078,6.019l-.2-.121.052.042c2.1,3.134,4.434-3.616,4.861-5.066a30.43,30.43,0,0,0,1.337-6.233,4.93,4.93,0,0,0,.076-1.652c-.148-.549-.672-1.062-.82-1.612a7.877,7.877,0,0,1-.321-3.3c.178-1.1.984-2.065,1.909-.839a6.135,6.135,0,0,1,.645,1.77,8.193,8.193,0,0,0,.228,1.857c.345.624,1.436.144,1.971-.189,2.168-1.1,3.757-3.27,5.134-5.187.207-.3,1.885-3.514,2.374-2.387l0,.047C318.734,260.267,316.638,262.11,316,263.346Zm-15.977,16.46a22.958,22.958,0,0,1,.44-4.739,24.879,24.879,0,0,1,.486-3.287c-.176.628-.3,1.3-.425,1.966A14.218,14.218,0,0,0,300.023,279.806Zm4.441-19.632a69.708,69.708,0,0,0,6.9-11.367c.553-1.133,4.2-10.451,2.362-10.792-.629-.128-1.1.856-1.389,1.307a38.035,38.035,0,0,0-2.677,5.609c-1.614,3.864-2.929,7.888-4.2,11.907.042-.051.014.139-.209.771l0-.047c0,.047-.037.1-.033.144Zm1-3.336-.105.386C305.4,257.079,305.471,256.884,305.466,256.837Z" transform="translate(-177.937 -228.128)" fill="#ffb3cc"/><path d="M346.329,241.474c.11.647-.638,1.235-1.188,1.429-.592.244-1.332-.061-1.887.086-.32.124-.212.255-.485.375a4.5,4.5,0,0,1-1.352.223c-.61.059-1.957-.142-2.441.233a.783.783,0,0,0-.254.306l.114-.292c-.278.073-.624,1.374-.872,2.243l.417-1.073-.485,1.831c-.375,1.022-.7,2.086-1.026,3.1-.655,2.035-1.22,4.014-1.777,6.087a103.155,103.155,0,0,0-2.29,11.537c-.078.665-.614,3.44.315,3.727.15.08,1.081-.573,1.039-.522.212-.255.471-.514.679-.816-.174.157-.65.625-.659.532-.074-.274,1.009-1.318,1.174-1.568.425-.51.8-1.062,1.175-1.568l2.4-3.564c1.487-2.255,2.874-4.548,4.361-6.8.33-.5,1.017-2.21,1.613-2.408.738-.211.951.52.775,1.147-.3,1.3-1.469,2.441-2.017,3.621-.984,2.066-2.216,4.016-3.4,6.007-1.308,2.145-2.616,4.289-4.074,6.354a9.776,9.776,0,0,1-2.639,3.069,3.031,3.031,0,0,1-2.88-.382,3.555,3.555,0,0,1-1.728-2.183c-.074-.275-.5-1.737-.251-2.09l.068.7,0-.94c-.076.194-.135-.41-.144-.5a5.039,5.039,0,0,1,.075-1.181,18.285,18.285,0,0,1,.257-2.232c.189-1.474.423-2.952.561-4.468a26.448,26.448,0,0,1,.8-4.4c.071-.241.735-3.17.969-3.192a3.152,3.152,0,0,1-.035.614c.12-.716.334-1.441.5-2.161-.072.242-.189.488-.2.395a8.477,8.477,0,0,1,.6-2.124l.405-1.682a44.509,44.509,0,0,1,1.265-4.536,33.626,33.626,0,0,0-3.78.6,20.4,20.4,0,0,1-5.83.463c-.239-.024-1.37.037-1.138-.5a5.445,5.445,0,0,1,1.274-.544,9.291,9.291,0,0,1,2.733-.637c1.813-.361,3.605-.438,5.414-.845a6.769,6.769,0,0,0,1.681-.255c.409-.18.377-.505.524-.942.247-.869.542-1.743.84-2.57a17.25,17.25,0,0,1,1.108-2.736c.326-.548.687-.723.915-1.308a15.368,15.368,0,0,1,1.764-3.785,4.025,4.025,0,0,1,3.928-1.5c.718.072,1.745.4,1.506,1.359-.1.385-.551.663-.806.969,0,.046.382-.459.4-.273a12.185,12.185,0,0,1-1.667,2.836c-.047,0,.544-1.226.582-1.324a68.7,68.7,0,0,0-3.889,8.73c.141-.013.264-.213.419-.557a2.951,2.951,0,0,0-.185.534c1.822-.268,3.7-.447,5.568-.72.375-.036,1.029-.615,1.139.032Zm-3.689-8.712c-3.244,5.617-4.985,12.076-7.049,18.143a76.814,76.814,0,0,0-2.874,10.888c-.311,1.674-.528,3.339-.694,5.045l.149-.907a52.218,52.218,0,0,1,1.437-6.665c1.243-4.767,2.377-9.666,4.06-14.288C339.16,240.844,340.453,236.587,342.639,232.762ZM332.3,271.7c.051.042.1.084.15.08ZM336.5,250.49c-.332.971-.57,1.934-.859,2.853.294-.873.588-1.746.831-2.662A.351.351,0,0,1,336.5,250.49Zm3.712-10.075-.37,1.069A10.951,10.951,0,0,0,340.209,240.414Zm1.028-2.587-.918,2.247C340.683,238.96,341.006,237.9,341.236,237.828Z" transform="translate(-191.671 -225.123)" fill="#ffb3cc"/><path d="M417.5,244.5a10.459,10.459,0,0,1-.023,5.122c-1.25,5.661-5.992,10.012-10.934,12.785a32.932,32.932,0,0,1-6.726,2.943,11.056,11.056,0,0,1-4.263.5c-.76-.021-2.8-.014-3.329-.621-.524-.514,0-.517.551-.664a26.816,26.816,0,0,0,3.862-1.214,36.839,36.839,0,0,0,8.126-4.627,29.016,29.016,0,0,0,6.239-6,14.721,14.721,0,0,0,1.975-3.57c.223-.632.606-2.547.3-2.8a3.821,3.821,0,0,1-.422-1.416c.078.322.3.629.367.857a4.622,4.622,0,0,0-.524-1.5l.014.139a5.571,5.571,0,0,0-.837-.812,2.661,2.661,0,0,0-1.57-.554c-1.187-.028-1.879.649-2.885,1.027-1.189.442-4.828-1.418-3.57-2.618.565-.524,1.528-.851,2.191-1.336a26.752,26.752,0,0,0,3.066-3.064,27.68,27.68,0,0,0,2.708-3.828c.2-.348,1.457-3.05,1.7-3.026,0,0-.295.873-.29.92a24.719,24.719,0,0,0,1.119-3.112l0-.047.042-.051.033-.144c.474-1.455.809-4.351-.49-4.556-.868-.152-1.736,1.152-2.2,1.714a51.111,51.111,0,0,0-6.135,9.509c-1,1.88-1.91,3.752-2.813,5.669a24.85,24.85,0,0,0-1.72,3.264c-1.125,3.536-2.358,6.941-3.141,10.584a44.539,44.539,0,0,0-.734,5.612l-.168-.266c-1.179,1.522-3.2.729-3.953-.7-.854-1.469-.7-3.738-.807-5.371a30.9,30.9,0,0,1,.088-5.926,17.99,17.99,0,0,1,.534-2.306,8.206,8.206,0,0,1,.166-1.707.169.169,0,0,0,.06.135c-.009-.093.029-.19.016-.33-.143.483-.12-.74-.077-.791a13.766,13.766,0,0,1,.278-1.529,18.855,18.855,0,0,0,.395-2.762c.062-.334.833-4.587,1.312-4.54.1.038-.063.334-.011.377l.229-1.056c-.145-.033,1.629-5.181,1.776-5.616.7-1.617,1.157-3.211,2.41-4.457.781-.732,1.619-2.832,3.223-2.421a2.784,2.784,0,0,1,1.654,1.909c.054.558-.218.679-.468,1.031a.361.361,0,0,1,.225-.116,5.723,5.723,0,0,1-1.114,1.7c-.047,0,.109-.339.227-.585a37.01,37.01,0,0,0-3.412,7.793c.374-1.022,1.915-5.161,2.229-5.332-.221.161-1.966,5.118-2.16,5.56a48.37,48.37,0,0,0-1.514,5.874c-.336,1.91-.53,3.807-.865,5.718a42.9,42.9,0,0,0-.816,4.774.974.974,0,0,1,.16-.3c.042-.051.025,2.2.038,2.344l-.016,1.786a68.809,68.809,0,0,1,7.539-19.928c-1.294,2.284-2.485,4.652-3.578,7.058-.5,1.221-.994,2.443-1.445,3.66a14.9,14.9,0,0,0-1.161,3.163,9.35,9.35,0,0,1,.844-2.523,26.057,26.057,0,0,1,1.019-2.68c.648-1.611,1.344-3.228,2.092-4.8a88.2,88.2,0,0,1,5.6-9.646,48.912,48.912,0,0,1,3.225-4.346c.9-1.025,2.112-2.644,3.5-3.011,2.588-.67,4.493,1.872,4.945,4.083,1.5,6.62-3.7,14.067-9.369,17.191C413.139,240.129,416.471,241.266,417.5,244.5Zm-23.222,2.359a4.77,4.77,0,0,0-.03-.8,13.105,13.105,0,0,0-.569,1.463,10.377,10.377,0,0,0,0,3.428,5.882,5.882,0,0,1,.145-2.409A6.165,6.165,0,0,0,394.274,246.861Zm4.9-12.96a.66.66,0,0,0-.067.288Zm.579-1.84a.351.351,0,0,0-.076.195Zm7.487-4.379.3-.356Zm6.645,21.58-.181.581a18.774,18.774,0,0,1-2.452,4.508l-1.433,1.827c.523-.472,1.2-.819,1.8-1.44a6.659,6.659,0,0,0,1.6-2.595A12.314,12.314,0,0,0,413.885,249.262Zm1.7-14.721c.377-.506.708-1.007,1.089-1.467a10.027,10.027,0,0,0,1.809-4.3,30.743,30.743,0,0,1-1.367,3A19.77,19.77,0,0,1,415.581,234.542Z" transform="translate(-229.537 -219.325)" fill="#ffb3cc"/><path d="M472.922,261.827c-.094.009-.686.253-.644.2-.451.232-.361.176-.65.625-.321.595-.591,1.231-.865,1.821-.17.2-1.62,2.831-1.962,2.723,0,0,.33-.5.279-.543l-1.208,1.712c.128-.153.216-.208.221-.162-.2.818-1.663,1.9-2.318,2.475a6.1,6.1,0,0,1-2.558,1.466,5.633,5.633,0,0,1-2.913-.238c-2.9-1.085-4.905-4.651-3.679-7.633a32.221,32.221,0,0,1,2.036-4.89,9.839,9.839,0,0,1,2.045-2.356,5.549,5.549,0,0,1,1.2-.819c.311-.218,1.01-.332,1.227-.54.263-.213.427-1.45.579-1.84a8.225,8.225,0,0,1,.553-1.133,8.056,8.056,0,0,1,2.205-2.653c1.51-1.036,3.192-.3,4.479.747,0,0,.848.435.828.719l-.206-.168.224.354.051.042c-.177-.359.454.285.454.285a3.84,3.84,0,0,1,.587,1.166,5.76,5.76,0,0,1,.194,2,28.575,28.575,0,0,1-.718,5.282c1.385-.367,2.762-.827,4.1-1.236.32-.125.625-.388.891-.085.056.088,0,.047,0,.047C478.885,260.788,473.429,261.685,472.922,261.827Zm-4.4.561c-2.092-.081-4.713-.723-5.455-3a18.221,18.221,0,0,0-1.41,3.047l.241-.446c-.049.474-3.759,9.094.083,8.164l.047,0C465.255,269.228,467.424,265.217,468.522,262.387Zm1.236-10.685c-1.079-1.353-2.612.907-3.226,1.905a.047.047,0,0,0-.043.051l-.038.1,0-.047c-.038.1-.08.148-.034.144a8.927,8.927,0,0,0-.689,1.193c.042-.051.477-.938.538-.8.168.266-.58,1.839-.693,2.133a9.679,9.679,0,0,0-.389,2.338,2.376,2.376,0,0,0,.687,2.189,2.746,2.746,0,0,0,1.547.322,3.342,3.342,0,0,0,1.178-.066c.461-.138.333.015.523-.472a16.2,16.2,0,0,0,.907-4.314C470.144,255.188,470.58,252.846,469.758,251.7Zm-3.226,1.905-.043.051A.046.046,0,0,0,466.532,253.608Z" transform="translate(-264.817 -236.036)" fill="#ffb3cc"/><path d="M515.7,269.057a33.588,33.588,0,0,1-2.47,4.322,32.782,32.782,0,0,1-2.953,4.226,9.841,9.841,0,0,1-1.934,1.547,6.7,6.7,0,0,1-1.134,1l.085-.1-.226.115c.277-.073-.466.561-.509.613a1.994,1.994,0,0,1-.733.258,1.307,1.307,0,0,1-.422.04,4.767,4.767,0,0,1-3.648-1.953c-.77,1.341-1.837,3.04-3.285,3.742-.767.4-2.365.038-1.714-1.058.161-.3.621-.435.889-.6a7,7,0,0,0,1.394-1.26c.463-.608.821-1.3,1.279-1.954a2.155,2.155,0,0,0,.524-.942,4.638,4.638,0,0,1-.166-.735c.094-.009.121.27.216.261l-.395-1.136a.589.589,0,0,1-.02.284,36.536,36.536,0,0,1-1.206-5.1c-.142-.973-.331-1.941-.374-2.876a6,6,0,0,1,.326-2,2.7,2.7,0,0,1,1.19-1.9,2.787,2.787,0,0,1,1.785-.641,1.409,1.409,0,0,1,1.3.674c.186.452-.129.623-.14,1a.25.25,0,0,1,.123-.2c.094-.009.125,1.773-.063,1.791a4.525,4.525,0,0,1-.077-.791,64.362,64.362,0,0,0,.276,6.736c.2-.395-.394-4.048-.112-4.075,0,0,.2,3.5.23,3.829.043-.051.944-1.5,1.141-1.423.1.037-.08.148-.024.236l.406-.7a.244.244,0,0,1-.178.111,38.79,38.79,0,0,1,2.572-4.238c.5-.658.8-.592,1.332-.926.489-.328.763-.918,1.557-1.04a1.284,1.284,0,0,1,.423-.04c.474,0,1.283.535.864,1.091-.255.307-.469.045-.742.165a.359.359,0,0,1,.193.029c.065.181-.988.564-1.039.522,0-.047.39-.366.39-.366a11.584,11.584,0,0,0-3.382,3.7c.17-.2,1.221-1.572,1.819-2.24a63.227,63.227,0,0,0-3.62,5.653,15.163,15.163,0,0,1-.7,1.57c-.453.7-.67.909-.49,1.784.161.69.465,2.351,1.248,2.605.839.342,1.843-1.021,2.272-1.485a31.291,31.291,0,0,0,4.113-4.478,2.12,2.12,0,0,1-.311.217s1.252-2.233,1.417-2.483c.656-1.049,1.312-2.1,1.921-3.142.241-.446.89-2.058,1.346-2.242.362-.176.774.16.857.529C517.28,266.839,516.168,268.072,515.7,269.057Zm-11.362,7.895a11.655,11.655,0,0,1-.309-1.239l-.032-.325C503.823,275.591,504.143,276.452,504.334,276.951Z" transform="translate(-286.968 -243.591)" fill="#ffb3cc"/><path d="M553.293,257.036l-1.269,2.046-2.218,3.5c-.576.9-1.3,1.767-1.872,2.668-.614,1-1.13,2.033-1.842,2.994a12.433,12.433,0,0,1-2.723,2.7,3.088,3.088,0,0,1-2.371.461,6.335,6.335,0,0,1-3.293-1.7,1.726,1.726,0,0,1-.6-.835,5.664,5.664,0,0,1-.184-.923,5.808,5.808,0,0,1,.085-1.557c.035-.614.262-1.2.3-1.813.031-.661.16-1.283.195-1.9a10.7,10.7,0,0,1-.073-1.731c.058-.381.3-.78.4-1.212a4.423,4.423,0,0,0-.345.831c-.1.386-.162.767-.271,1.106-.1.386-.12.716-.225,1.1a3.987,3.987,0,0,0-.3,1.3c-.006.423.082.838.075,1.261a5.041,5.041,0,0,0-.075,1.181c.013.14.135.409.144.5.018.186-.053.428-.031.661.041.419.175.828.267,1.289A5.655,5.655,0,0,1,536.3,265c.1-1.418.156-2.785.353-4.166a18.682,18.682,0,0,1,2.92-7.98c1.27-2.047,3.055-3.673,5.635-3.45a4.327,4.327,0,0,1,2.717,1.15,3.294,3.294,0,0,1,.575,3,10.833,10.833,0,0,1-3.18,4.812,15.305,15.305,0,0,1-1.832,1.631,8.614,8.614,0,0,1-1.438.794l-.771.356c-.319.124-.371.082-.485.375-.189.488,0,.94-.052,1.414-.035.614-.121,1.186-.2,1.8a9.125,9.125,0,0,0,.033,3.754c.748,2.324,4.333-1.729,4.974-2.447.429-.464.806-.97,1.188-1.428.207-.3.467-.562.627-.859a1.438,1.438,0,0,0,.062-.335,25.612,25.612,0,0,1,1.769-2.752c.751-1.058,1.4-2.154,2.1-3.3.364-.645,1.182-2.461,2.055-1.276l0,.047c.052.042.052.042.047,0C553.619,256.488,553.5,256.734,553.293,257.036ZM541.339,259.3a13.6,13.6,0,0,0,3.64-3.494l.7-1.1c.118-.247.34-.408.406-.7.024-.237-.087-.415-.068-.7l.092-1c0-.469-.3-1.661-.994-1.454a2.174,2.174,0,0,0-.773.825l-.736,1.2a30.852,30.852,0,0,0-1.768,4.724.36.36,0,0,1-.033.144C541.614,258.245,541.524,258.77,541.339,259.3Z" transform="translate(-308.742 -235.946)" fill="#ffb3cc"/><path d="M583.616,253.91c.332,1.471-1.9,2.9-2.815,3.7a36.171,36.171,0,0,1-3.963,3.1,8.672,8.672,0,0,0-1.251.777c-.476.468-.386.413-.22,1.148a15.314,15.314,0,0,1,.483,2.537,9.94,9.94,0,0,1-.188,3.916c-.846,2.993-2.919,5.069-6.167,5.285-2.868.227-6.064-.971-5.752-4.1a6.662,6.662,0,0,1-.153.86c-.347-.155-.118-1.21-.047-1.452a9.358,9.358,0,0,1,3.071-4.473c.739-.681,1.478-1.361,2.227-1.95.574-.431,1.928-1.124,1.959-1.784a8.717,8.717,0,0,0-.924-2.683A26.02,26.02,0,0,1,569,256.1a8.473,8.473,0,0,0-.149-1.536,9.133,9.133,0,0,1-.733-2.184,5.574,5.574,0,0,1,.008-2.349c.267-1.152,2.506-3.949,3.887-2.907-.023-.232.673.594.748.869.018.186,0,1.925-.289,1.906,0,0,.053-.428.068-.758a7.429,7.429,0,0,0-.467,2.017,6.155,6.155,0,0,0,.321,1.848c-.009-.093-.018-.186.072-.241-.046,0,.7,2.375,1.317,4.288-.451-1.224-1.018-2.673-1.291-3.539.574,2.011,1.238,3.967,1.9,5.923.042-.051.08-.148.011-.376a1.814,1.814,0,0,1,.121.27,65.592,65.592,0,0,0,5.6-3.776,25.181,25.181,0,0,1,2.443-2.158c.451-.232.836-.174,1.04.464Zm-15.352,17.528,1.264-.637c.051.042-.344.362-.339.408a5.356,5.356,0,0,0,1.333-1.4l-.217.209a12.637,12.637,0,0,0,1.079-2.546,10.185,10.185,0,0,0-.044-3.377,1.2,1.2,0,0,1-.31.218l.3-.311-.532.38c.272-.121-.552.663-.683.769L568.8,266.22a11.4,11.4,0,0,0-2.454,2.535c-.363.646-1.4,2.67-.142,2.926A3.909,3.909,0,0,0,568.264,271.437Zm6.148-1.573a8.17,8.17,0,0,1-5.748,3.743,10.2,10.2,0,0,0,3.584-1.141A4.747,4.747,0,0,0,574.412,269.864Zm-.429-12.216a11.451,11.451,0,0,1,.409,1.276A11.831,11.831,0,0,1,573.983,257.647Zm1.419,5.829c.009.093.018.186.069.228A2.027,2.027,0,0,1,575.4,263.476Z" transform="translate(-323.65 -234.574)" fill="#ffb3cc"/><g transform="translate(63.772 9.316)"><path d="M185.322,254.919c-.05.919-.161,1.6-1.066,1.985-1,.388-1.071.006-1.359-.848-.858-2.467-2.734-3.916-4.623-5.607a32,32,0,0,1-4.639-4.977c-1.214-1.821-.1-3.9,1.7-4.817,2.041-1.02,4.465-.275,6.317.693a5.9,5.9,0,0,1,2.084,1.68c.362.416.226.616.758.54.289-.063.845-.622,1.126-.83,2.975-1.792,10.253-2.306,8.489,3.142-.672,2.061-2.852,3.234-4.49,4.524a21.867,21.867,0,0,0-2.748,2.408C186.272,253.519,186.069,254.3,185.322,254.919Z" transform="translate(-173.124 -240.166)" fill="#ffb3cc"/></g></svg>