<svg xmlns="http://www.w3.org/2000/svg" width="360" height="36"><path d="M127.4 36a1.3 1.3 0 0 1-1-.5s-2.4-2.8-13.8-12.4a15.5 15.5 0 0 1-5-8.2 13.7 13.7 0 0 1 .6-8.6 10.3 10.3 0 0 1 4.2-4.9 11.6 11.6 0 0 1 7.3-1.3 8.7 8.7 0 0 1 6 3.6 10 10 0 0 1 2 6.5 7.5 7.5 0 0 1-2.5 5.2 10 10 0 0 1-7 2.1 1.3 1.3 0 1 1 0-2.5 7.7 7.7 0 0 0 5.3-1.5 5 5 0 0 0 1.7-3.5c.2-3.2-2-7-5.8-7.4-4.2-.4-7.4 1.3-8.9 4.7a11.1 11.1 0 0 0-.4 7 13 13 0 0 0 4.2 6.8A226 226 0 0 1 127.4 33l1.2-1c2-1.8 5-4.1 8.8-6.7 5.7-4.2 6.8-9 5.8-12a6 6 0 0 0-5.8-4.2 4.6 4.6 0 0 0-4.5 6.9 3.7 3.7 0 0 0 3.5 1.7 1.3 1.3 0 1 1 .1 2.6 6.3 6.3 0 0 1-5.8-3 7.1 7.1 0 0 1 6.7-10.7 8.9 8.9 0 0 1 5.2 1.6 8.5 8.5 0 0 1 3 4.3c1.3 4 .1 9.8-6.8 14.8-8.2 6-10.3 8.2-10.5 8.3a1.3 1.3 0 0 1-1 .5zm1-.4zm.1-.3a1.3 1.3 0 0 1-.1.2 1.2 1.2 0 0 0 .1-.2z" fill="#ff9a9a"/><g fill="#1c1c1c"><path d="M13.2 20.2h-11a5.2 5.2 0 0 0 1.5 3.4A4.5 4.5 0 0 0 7 24.8a5.7 5.7 0 0 0 2.6-.6 2.8 2.8 0 0 0 1.4-1.6l2 1a6 6 0 0 1-2.3 2.4 7.5 7.5 0 0 1-3.7.8 6.7 6.7 0 0 1-5.1-2A7.7 7.7 0 0 1 0 19.3a8 8 0 0 1 1.8-5.5 6.4 6.4 0 0 1 5-2 6.6 6.6 0 0 1 3.5.9 5.8 5.8 0 0 1 2.2 2.4 7.7 7.7 0 0 1 .8 3.5 11.5 11.5 0 0 1-.1 1.6zm-9.5-5.3a5.1 5.1 0 0 0-1.4 3.2H11A5.3 5.3 0 0 0 9.7 15a3.9 3.9 0 0 0-2.9-1.2 4.2 4.2 0 0 0-3 1.1zM19.8 22.6a2.5 2.5 0 0 0 .4 1.6 1.5 1.5 0 0 0 1.2.4 5.6 5.6 0 0 0 1-.1 6.5 6.5 0 0 0 1.1-.3l-.4 2.2a5.4 5.4 0 0 1-2.1.4 3.3 3.3 0 0 1-2.6-1 4.3 4.3 0 0 1-.9-2.9V5.5h2.3zM38.7 20.2H28a5.2 5.2 0 0 0 1.4 3.4 4.5 4.5 0 0 0 3.3 1.2 5.7 5.7 0 0 0 2.6-.6 2.8 2.8 0 0 0 1.4-1.6l2 1a6 6 0 0 1-2.3 2.4 7.5 7.5 0 0 1-3.7.8 6.7 6.7 0 0 1-5.2-2 7.8 7.8 0 0 1-1.8-5.5 8 8 0 0 1 1.8-5.5 6.4 6.4 0 0 1 5-2 6.6 6.6 0 0 1 3.5.9A5.8 5.8 0 0 1 38 15a7.7 7.7 0 0 1 .7 3.4 11.5 11.5 0 0 1 0 1.7zm-9.4-5.3a5.1 5.1 0 0 0-1.4 3.2h8.7a5.3 5.3 0 0 0-1.3-3.1 3.9 3.9 0 0 0-3-1.2 4.2 4.2 0 0 0-3 1.1zM54.8 12l-6 14.5h-2.3l-6-14.4h2.6l4.6 12 4.7-12zM70.4 24.7l-.1 1.8a5.1 5.1 0 0 1-1.7.3 2.9 2.9 0 0 1-1.8-.5 2.4 2.4 0 0 1-.8-1.6 4.3 4.3 0 0 1-2 1.5 6.6 6.6 0 0 1-2.7.6 5.9 5.9 0 0 1-3.5-1 3.3 3.3 0 0 1-1.4-2.9 3.6 3.6 0 0 1 1.5-2.8 8.8 8.8 0 0 1 4.1-1.7l3.9-.6V17a3 3 0 0 0-1-2.3 3.4 3.4 0 0 0-2.4-.9 4.2 4.2 0 0 0-4.1 2.8l-1.7-1.3a4.9 4.9 0 0 1 2.1-2.5 7 7 0 0 1 3.7-1 6.4 6.4 0 0 1 4.1 1.2 4.4 4.4 0 0 1 1.6 3.7v7.1a1 1 0 0 0 .2.8 1.1 1.1 0 0 0 .9.2 4.8 4.8 0 0 0 1.1-.1zm-5.8-.8a2.6 2.6 0 0 0 1.3-2.2v-2l-3.3.6a7.6 7.6 0 0 0-2.8 1 2 2 0 0 0-1 1.6 1.6 1.6 0 0 0 .7 1.4 3.4 3.4 0 0 0 2 .5 5.6 5.6 0 0 0 3-.9zM82 25.5a5.4 5.4 0 0 1-3.7 1.3 4.3 4.3 0 0 1-2.9-1 3.7 3.7 0 0 1-1.1-2.9v-8.8h-2.9v-2h2.9V8.6l2.3-.6v4.1h5.3v2h-5.3v8.4a2 2 0 0 0 .6 1.6 2.3 2.3 0 0 0 1.6.5 3.4 3.4 0 0 0 2.4-1zM97.5 20.2H86.7a5.2 5.2 0 0 0 1.4 3.4 4.5 4.5 0 0 0 3.3 1.2 5.7 5.7 0 0 0 2.6-.6 2.8 2.8 0 0 0 1.4-1.6l2 1A6 6 0 0 1 95 26a7.5 7.5 0 0 1-3.7.8 6.7 6.7 0 0 1-5.2-2 7.7 7.7 0 0 1-1.8-5.5 8 8 0 0 1 1.8-5.5 6.4 6.4 0 0 1 5-2 6.6 6.6 0 0 1 3.5.9 5.8 5.8 0 0 1 2.2 2.4 7.7 7.7 0 0 1 .8 3.5 11.5 11.5 0 0 1-.2 1.6zm-9.4-5.3a5.1 5.1 0 0 0-1.4 3.2h8.7a5.3 5.3 0 0 0-1.3-3.1 3.9 3.9 0 0 0-2.9-1.2 4.2 4.2 0 0 0-3 1.1z"/></g><g fill="#1c1c1c"><path d="M169 19h-11a5.2 5.2 0 0 0 1.5 3.5 4.5 4.5 0 0 0 3.3 1.2 5.7 5.7 0 0 0 2.6-.6 2.8 2.8 0 0 0 1.5-1.5l1.9 1a6 6 0 0 1-2.3 2.3 7.5 7.5 0 0 1-3.7.8 6.7 6.7 0 0 1-5.1-2 7.7 7.7 0 0 1-1.9-5.5 8 8 0 0 1 1.8-5.5 6.4 6.4 0 0 1 5-2 6.6 6.6 0 0 1 3.5 1 5.8 5.8 0 0 1 2.2 2.3 7.7 7.7 0 0 1 .8 3.5 11.5 11.5 0 0 1-.1 1.6zm-9.5-5.1a5.1 5.1 0 0 0-1.4 3.1h8.8a5.3 5.3 0 0 0-1.4-3.1 3.9 3.9 0 0 0-2.9-1.2 4.2 4.2 0 0 0-3 1.2zM185 11l-6 14.4h-2.3l-6-14.4h2.6l4.6 12 4.7-12zM200.3 19h-10.9a5.2 5.2 0 0 0 1.5 3.5 4.5 4.5 0 0 0 3.2 1.2 5.7 5.7 0 0 0 2.7-.6 2.8 2.8 0 0 0 1.4-1.5l2 1a6 6 0 0 1-2.4 2.3 7.5 7.5 0 0 1-3.7.8 6.7 6.7 0 0 1-5-2 7.7 7.7 0 0 1-2-5.5 8 8 0 0 1 1.8-5.5 6.4 6.4 0 0 1 5-2 6.6 6.6 0 0 1 3.6 1 5.8 5.8 0 0 1 2.2 2.3 7.7 7.7 0 0 1 .7 3.5 11.5 11.5 0 0 1 0 1.6zM191 14a5.1 5.1 0 0 0-1.4 3.1h8.7a5.3 5.3 0 0 0-1.3-3.1 3.9 3.9 0 0 0-3-1.2 4.2 4.2 0 0 0-3 1.2zM213.2 11l-.5 2.3a3.8 3.8 0 0 0-1.8-.4 3.4 3.4 0 0 0-1.8.5 4 4 0 0 0-1.4 1.6 5.6 5.6 0 0 0-.6 2.6v7.8h-2.3V11h1.9l.3 2.4q1.2-2.7 4.6-2.7a3.5 3.5 0 0 1 1.6.3zM222 27.8a7.3 7.3 0 0 1-1.8 3 4.1 4.1 0 0 1-2.7.8 5 5 0 0 1-1.8-.3 3.7 3.7 0 0 1-1.4-.9l.8-2a2.7 2.7 0 0 0 2.4 1.2 2.4 2.4 0 0 0 1.5-.5 4 4 0 0 0 1.1-1.8l.7-1.9-6-14.4h2.6l3.6 9.4 1 2.6 1-2.9 3.4-9h2.4zM244.8 4.4v21h-2l-.1-2.5a4.8 4.8 0 0 1-2 2 5.8 5.8 0 0 1-3 .8 6 6 0 0 1-4.8-2 9.4 9.4 0 0 1 0-11 6 6 0 0 1 4.8-2 5.8 5.8 0 0 1 2.9.7 5 5 0 0 1 2 1.9v-9zm-3.5 17.9a5.8 5.8 0 0 0 1.2-4V18a5.8 5.8 0 0 0-1.2-3.8 4.1 4.1 0 0 0-3.3-1.5 4 4 0 0 0-3.3 1.5 7.2 7.2 0 0 0 0 8 4 4 0 0 0 3.3 1.5 4.1 4.1 0 0 0 3.3-1.4zM263.2 23.6l-.2 1.8a5.1 5.1 0 0 1-1.7.3 2.9 2.9 0 0 1-1.8-.5 2.4 2.4 0 0 1-.8-1.6 4.3 4.3 0 0 1-2 1.6 6.6 6.6 0 0 1-2.7.5 5.9 5.9 0 0 1-3.5-1 3.3 3.3 0 0 1-1.4-2.9 3.6 3.6 0 0 1 1.5-2.8 8.8 8.8 0 0 1 4.2-1.7l3.8-.6V16a3 3 0 0 0-.9-2.3 3.4 3.4 0 0 0-2.5-.9 4.2 4.2 0 0 0-4.1 2.8l-1.7-1.3a4.9 4.9 0 0 1 2.1-2.5 7 7 0 0 1 3.7-1 6.4 6.4 0 0 1 4.2 1.3 4.4 4.4 0 0 1 1.5 3.6v7.1a1 1 0 0 0 .3.8 1.1 1.1 0 0 0 .8.3 4.7 4.7 0 0 0 1.2-.2zm-6-.8a2.6 2.6 0 0 0 1.4-2.2v-2l-3.2.6a7.6 7.6 0 0 0-3 1 2 2 0 0 0-.9 1.7 1.6 1.6 0 0 0 .7 1.3 3.4 3.4 0 0 0 2 .5 5.6 5.6 0 0 0 3-.9zM271.1 27.8a7.3 7.3 0 0 1-1.8 3 4.1 4.1 0 0 1-2.7.8 5 5 0 0 1-1.8-.3 3.7 3.7 0 0 1-1.4-.9l.8-2a2.7 2.7 0 0 0 2.4 1.2 2.4 2.4 0 0 0 1.4-.5 4 4 0 0 0 1.2-1.8l.7-1.9-6-14.4h2.6l3.6 9.4 1 2.6 1-2.9 3.3-9h2.5z"/></g><g fill="#1c1c1c"><path d="M292.5 21.6a2.5 2.5 0 0 0 .3 1.5 1.5 1.5 0 0 0 1.2.4 5.6 5.6 0 0 0 1 0 6.5 6.5 0 0 0 1.1-.4l-.4 2.2a5.4 5.4 0 0 1-2 .4 3.3 3.3 0 0 1-2.7-1 4.3 4.3 0 0 1-.9-2.9V4.4h2.4zM299 7.8a1.9 1.9 0 1 1 1.2.4 1.7 1.7 0 0 1-1.2-.4zm2.4 17.6h-2.3V11h2.3zM318.7 11l-6 14.4h-2.3l-6-14.4h2.6l4.6 12 4.7-12zM321.7 7.8a1.9 1.9 0 1 1 1.2.4 1.7 1.7 0 0 1-1.2-.4zm2.4 17.6h-2.3V11h2.3zM340.5 12.1a5.2 5.2 0 0 1 1.6 4.1v9.2h-2.3V17a4.6 4.6 0 0 0-1-3.3 3.4 3.4 0 0 0-2.6-1 4.8 4.8 0 0 0-2.2.5 4 4 0 0 0-1.6 1.7 5.7 5.7 0 0 0-.7 2.9v7.6h-2.3V11h2l.2 2.3a4.5 4.5 0 0 1 2-2 6.4 6.4 0 0 1 2.8-.6 5.8 5.8 0 0 1 4 1.4zM358.5 24.5a3 3 0 0 1 1.2 2.5 3.5 3.5 0 0 1-1 2.4 6 6 0 0 1-2.6 1.7 11 11 0 0 1-3.5.5 9.4 9.4 0 0 1-5-1 3.2 3.2 0 0 1-1.7-2.8 2.5 2.5 0 0 1 .7-1.7 3.7 3.7 0 0 1 1.9-1 4 4 0 0 1-1.5-1.2 2.4 2.4 0 0 1-.5-1.5 2.7 2.7 0 0 1 .6-1.8 3.4 3.4 0 0 1 1.6-1 4.2 4.2 0 0 1-1.6-1.7 4.9 4.9 0 0 1-.5-2.3 4.4 4.4 0 0 1 .7-2.5 5 5 0 0 1 2.1-1.8 7.8 7.8 0 0 1 6 0 3.8 3.8 0 0 1 4-3l.6 2q-2.8 0-3.4 1.7a4.7 4.7 0 0 1 1.3 1.5 4.6 4.6 0 0 1-.3 4.6 5 5 0 0 1-2 1.7 7.3 7.3 0 0 1-3.1.7 8.5 8.5 0 0 1-2.2-.3 2.3 2.3 0 0 0-1.3.6 1.7 1.7 0 0 0-.4 1.2 1.4 1.4 0 0 0 .6 1.2 2.2 2.2 0 0 0 1.3.4h4.8a5 5 0 0 1 3.2.9zm-2.2 4.5a2 2 0 0 0 1.2-1.7 1.4 1.4 0 0 0-.6-1.3 4.2 4.2 0 0 0-2.2-.4h-3.9a3.7 3.7 0 0 0-2 .4 1.5 1.5 0 0 0-.7 1.4 1.9 1.9 0 0 0 1.2 1.7 8 8 0 0 0 3.5.6 7.1 7.1 0 0 0 3.5-.7zM350 13.4a2.8 2.8 0 0 0 0 4.4 4.2 4.2 0 0 0 5 0 2.8 2.8 0 0 0 0-4.4 4.2 4.2 0 0 0-5 0z"/></g></svg>